<svg width="121" height="14" viewBox="0 0 121 14" fill="none" xmlns="http://www.w3.org/2000/svg">
<path d="M6.79 6.716C6.678 6.76267 6.51933 6.81867 6.314 6.884C6.118 6.94 5.89867 6.996 5.656 7.052C5.41333 7.108 5.16133 7.15933 4.9 7.206C4.63867 7.24333 4.39133 7.262 4.158 7.262C3.39267 7.262 2.78133 7.16867 2.324 6.982C1.86667 6.79533 1.512 6.55267 1.26 6.254C1.01733 5.95533 0.854 5.61467 0.77 5.232C0.695333 4.84933 0.658 4.46667 0.658 4.084V1.004H1.974V3.972C1.974 4.196 1.99267 4.434 2.03 4.686C2.06733 4.938 2.16067 5.17133 2.31 5.386C2.45933 5.60067 2.67867 5.778 2.968 5.918C3.25733 6.058 3.654 6.128 4.158 6.128C4.78333 6.128 5.31533 6.072 5.754 5.96C6.202 5.83867 6.54733 5.71733 6.79 5.596V1.004H8.12V11H6.79V6.716ZM10.1108 3.762H11.3008V9.67L14.7168 3.762H16.2428V11H15.0528V5.092L11.6368 11H10.1108V3.762ZM19.7905 4.812H17.2005V3.762H23.5705V4.812H20.9805V11H19.7905V4.812ZM26.523 11.154C26.1963 11.154 25.8883 11.1167 25.599 11.042C25.3097 10.9767 25.053 10.8647 24.829 10.706C24.6143 10.538 24.4417 10.328 24.311 10.076C24.1897 9.81467 24.129 9.502 24.129 9.138C24.129 8.72733 24.199 8.39133 24.339 8.13C24.479 7.86867 24.661 7.65867 24.885 7.5C25.1183 7.332 25.3797 7.206 25.669 7.122C25.9677 7.038 26.271 6.968 26.579 6.912C26.9057 6.84667 27.2137 6.8 27.503 6.772C27.8017 6.73467 28.063 6.688 28.287 6.632C28.511 6.56667 28.6883 6.478 28.819 6.366C28.9497 6.24467 29.015 6.072 29.015 5.848C29.015 5.58667 28.9637 5.37667 28.861 5.218C28.7677 5.05933 28.6417 4.938 28.483 4.854C28.3337 4.77 28.161 4.714 27.965 4.686C27.7783 4.658 27.5917 4.644 27.405 4.644C26.901 4.644 26.481 4.742 26.145 4.938C25.809 5.12467 25.627 5.484 25.599 6.016H24.409C24.4277 5.568 24.521 5.19 24.689 4.882C24.857 4.574 25.081 4.32667 25.361 4.14C25.641 3.944 25.9583 3.804 26.313 3.72C26.677 3.636 27.0643 3.594 27.475 3.594C27.8017 3.594 28.1237 3.61733 28.441 3.664C28.7677 3.71067 29.0617 3.80867 29.323 3.958C29.5843 4.098 29.7943 4.29867 29.953 4.56C30.1117 4.82133 30.191 5.162 30.191 5.582V9.306C30.191 9.586 30.205 9.79133 30.233 9.922C30.2703 10.0527 30.3823 10.118 30.569 10.118C30.653 10.118 30.7743 10.0947 30.933 10.048V10.972C30.7277 11.0933 30.443 11.154 30.079 11.154C29.771 11.154 29.5237 11.07 29.337 10.902C29.1597 10.7247 29.071 10.44 29.071 10.048C28.7443 10.44 28.3617 10.7247 27.923 10.902C27.4937 11.07 27.027 11.154 26.523 11.154ZM26.789 10.118C27.181 10.118 27.517 10.0667 27.797 9.964C28.077 9.852 28.3057 9.71667 28.483 9.558C28.6603 9.39 28.791 9.21267 28.875 9.026C28.959 8.83 29.001 8.648 29.001 8.48V7.262C28.8517 7.38333 28.6557 7.46733 28.413 7.514C28.1703 7.56067 27.9137 7.60267 27.643 7.64C27.3817 7.67733 27.1157 7.71467 26.845 7.752C26.5743 7.78933 26.3317 7.85467 26.117 7.948C25.9023 8.04133 25.725 8.17667 25.585 8.354C25.4543 8.522 25.389 8.75533 25.389 9.054C25.389 9.25 25.4263 9.418 25.501 9.558C25.585 9.68867 25.6877 9.796 25.809 9.88C25.9397 9.964 26.089 10.0247 26.257 10.062C26.425 10.0993 26.6023 10.118 26.789 10.118ZM33.7905 4.812H31.2005V3.762H37.5705V4.812H34.9805V11H33.7905V4.812ZM38.591 3.762H39.781V6.534H42.357C43.0663 6.534 43.6357 6.73 44.065 7.122C44.4943 7.50467 44.709 8.046 44.709 8.746C44.709 9.42733 44.5037 9.97333 44.093 10.384C43.6823 10.7947 43.1223 11 42.413 11H38.591V3.762ZM41.979 9.95C42.9777 9.95 43.477 9.54867 43.477 8.746C43.477 7.95267 42.9777 7.556 41.979 7.556H39.781V9.95H41.979ZM49.896 3.762H55.804V11H54.614V4.812H51.086V11H49.896V3.762ZM60.7153 11.154C60.1366 11.154 59.6279 11.0607 59.1893 10.874C58.7599 10.678 58.3959 10.412 58.0973 10.076C57.7986 9.73067 57.5746 9.32933 57.4253 8.872C57.2759 8.41467 57.2013 7.92 57.2013 7.388C57.2013 6.856 57.2759 6.36133 57.4253 5.904C57.5746 5.43733 57.7986 5.036 58.0973 4.7C58.3959 4.35467 58.7599 4.084 59.1893 3.888C59.6279 3.692 60.1366 3.594 60.7153 3.594C61.2846 3.594 61.7886 3.692 62.2273 3.888C62.6659 4.084 63.0346 4.35467 63.3333 4.7C63.6319 5.036 63.8559 5.43733 64.0053 5.904C64.1546 6.36133 64.2293 6.856 64.2293 7.388C64.2293 7.92 64.1546 8.41467 64.0053 8.872C63.8559 9.32933 63.6319 9.73067 63.3333 10.076C63.0346 10.412 62.6659 10.678 62.2273 10.874C61.7886 11.0607 61.2846 11.154 60.7153 11.154ZM60.7153 10.118C61.0233 10.118 61.3126 10.0573 61.5833 9.936C61.8633 9.81467 62.1059 9.642 62.3113 9.418C62.5166 9.18467 62.6753 8.9 62.7873 8.564C62.9086 8.21867 62.9693 7.82667 62.9693 7.388C62.9693 6.94933 62.9086 6.562 62.7873 6.226C62.6753 5.88067 62.5166 5.59133 62.3113 5.358C62.1059 5.12467 61.8633 4.94733 61.5833 4.826C61.3126 4.70467 61.0233 4.644 60.7153 4.644C60.4073 4.644 60.1133 4.70467 59.8333 4.826C59.5626 4.94733 59.3246 5.12467 59.1193 5.358C58.9139 5.59133 58.7506 5.88067 58.6293 6.226C58.5173 6.562 58.4613 6.94933 58.4613 7.388C58.4613 7.82667 58.5173 8.21867 58.6293 8.564C58.7506 8.9 58.9139 9.18467 59.1193 9.418C59.3246 9.642 59.5626 9.81467 59.8333 9.936C60.1133 10.0573 60.4073 10.118 60.7153 10.118ZM64.7783 9.95H65.6323C65.735 9.754 65.8377 9.488 65.9403 9.152C66.0523 8.80667 66.1503 8.42867 66.2343 8.018C66.3277 7.598 66.4023 7.15467 66.4583 6.688C66.5143 6.22133 66.5423 5.764 66.5423 5.316V3.762H71.7783V9.95H72.7583V13.198H71.6243V11H65.9123V13.198H64.7783V9.95ZM70.5883 9.95V4.812H67.7043V5.428C67.7043 5.88533 67.6763 6.34267 67.6203 6.8C67.5737 7.248 67.5083 7.67267 67.4243 8.074C67.3403 8.47533 67.247 8.83933 67.1443 9.166C67.051 9.49267 66.9577 9.754 66.8643 9.95H70.5883ZM73.9185 3.762H75.1085V4.742H75.1365C75.3325 4.34067 75.6405 4.05133 76.0605 3.874C76.4805 3.68733 76.9425 3.594 77.4465 3.594C78.0065 3.594 78.4918 3.69667 78.9025 3.902C79.3225 4.10733 79.6678 4.38733 79.9385 4.742C80.2185 5.08733 80.4285 5.48867 80.5685 5.946C80.7085 6.40333 80.7785 6.88867 80.7785 7.402C80.7785 7.92467 80.7085 8.41467 80.5685 8.872C80.4378 9.32 80.2325 9.71667 79.9525 10.062C79.6818 10.398 79.3365 10.664 78.9165 10.86C78.5058 11.056 78.0251 11.154 77.4745 11.154C77.2878 11.154 77.0871 11.1353 76.8725 11.098C76.6578 11.0607 76.4431 11 76.2285 10.916C76.0138 10.832 75.8085 10.72 75.6125 10.58C75.4258 10.4307 75.2671 10.2487 75.1365 10.034H75.1085V13.758H73.9185V3.762ZM77.3485 10.118C77.7498 10.118 78.0905 10.0387 78.3705 9.88C78.6505 9.72133 78.8745 9.51133 79.0425 9.25C79.2105 8.98867 79.3318 8.69 79.4065 8.354C79.4811 8.018 79.5185 7.67267 79.5185 7.318C79.5185 6.982 79.4718 6.65533 79.3785 6.338C79.2945 6.01133 79.1591 5.722 78.9725 5.47C78.7951 5.218 78.5618 5.01733 78.2725 4.868C77.9925 4.71867 77.6611 4.644 77.2785 4.644C76.8771 4.644 76.5365 4.72333 76.2565 4.882C75.9765 5.04067 75.7478 5.25067 75.5705 5.512C75.3931 5.764 75.2625 6.05333 75.1785 6.38C75.1038 6.70667 75.0665 7.038 75.0665 7.374C75.0665 7.72867 75.1085 8.074 75.1925 8.41C75.2765 8.73667 75.4071 9.026 75.5845 9.278C75.7711 9.53 76.0091 9.73533 76.2985 9.894C76.5878 10.0433 76.9378 10.118 77.3485 10.118ZM85.2973 11.154C84.7186 11.154 84.21 11.0607 83.7713 10.874C83.342 10.678 82.978 10.412 82.6793 10.076C82.3806 9.73067 82.1566 9.32933 82.0073 8.872C81.858 8.41467 81.7833 7.92 81.7833 7.388C81.7833 6.856 81.858 6.36133 82.0073 5.904C82.1566 5.43733 82.3806 5.036 82.6793 4.7C82.978 4.35467 83.342 4.084 83.7713 3.888C84.21 3.692 84.7186 3.594 85.2973 3.594C85.8666 3.594 86.3706 3.692 86.8093 3.888C87.248 4.084 87.6166 4.35467 87.9153 4.7C88.214 5.036 88.438 5.43733 88.5873 5.904C88.7366 6.36133 88.8113 6.856 88.8113 7.388C88.8113 7.92 88.7366 8.41467 88.5873 8.872C88.438 9.32933 88.214 9.73067 87.9153 10.076C87.6166 10.412 87.248 10.678 86.8093 10.874C86.3706 11.0607 85.8666 11.154 85.2973 11.154ZM85.2973 10.118C85.6053 10.118 85.8946 10.0573 86.1653 9.936C86.4453 9.81467 86.688 9.642 86.8933 9.418C87.0986 9.18467 87.2573 8.9 87.3693 8.564C87.4906 8.21867 87.5513 7.82667 87.5513 7.388C87.5513 6.94933 87.4906 6.562 87.3693 6.226C87.2573 5.88067 87.0986 5.59133 86.8933 5.358C86.688 5.12467 86.4453 4.94733 86.1653 4.826C85.8946 4.70467 85.6053 4.644 85.2973 4.644C84.9893 4.644 84.6953 4.70467 84.4153 4.826C84.1446 4.94733 83.9066 5.12467 83.7013 5.358C83.496 5.59133 83.3326 5.88067 83.2113 6.226C83.0993 6.562 83.0433 6.94933 83.0433 7.388C83.0433 7.82667 83.0993 8.21867 83.2113 8.564C83.3326 8.9 83.496 9.18467 83.7013 9.418C83.9066 9.642 84.1446 9.81467 84.4153 9.936C84.6953 10.0573 84.9893 10.118 85.2973 10.118ZM93.4484 11.154C92.515 11.154 91.759 10.916 91.1804 10.44C90.611 9.964 90.2517 9.22667 90.1024 8.228C90.0464 7.836 90.0184 7.39733 90.0184 6.912C90.0184 6.56667 90.0277 6.20733 90.0464 5.834C90.0744 5.46067 90.1164 5.092 90.1724 4.728C90.2377 4.364 90.3217 4.014 90.4244 3.678C90.5364 3.342 90.681 3.03867 90.8584 2.768C91.1757 2.27333 91.563 1.90933 92.0204 1.676C92.4777 1.43333 93.0517 1.28867 93.7424 1.242C94.1997 1.20467 94.5824 1.16267 94.8904 1.116C95.1984 1.06933 95.371 0.952666 95.4084 0.766H96.5984C96.5797 1.13 96.5004 1.41 96.3604 1.606C96.2204 1.802 96.0244 1.95133 95.7724 2.054C95.5204 2.14733 95.2124 2.21267 94.8484 2.25C94.4844 2.278 94.0597 2.31067 93.5744 2.348C93.173 2.376 92.823 2.46933 92.5244 2.628C92.2257 2.78667 91.969 3.00133 91.7544 3.272C91.549 3.53333 91.381 3.846 91.2504 4.21C91.1197 4.56467 91.0264 4.95667 90.9704 5.386H91.0124C91.2177 4.91 91.535 4.518 91.9644 4.21C92.403 3.902 92.9304 3.748 93.5464 3.748C94.5637 3.748 95.3664 4.06533 95.9544 4.7C96.5424 5.33467 96.8364 6.24933 96.8364 7.444C96.8364 8.05067 96.7524 8.58733 96.5844 9.054C96.4257 9.51133 96.197 9.89867 95.8984 10.216C95.5997 10.524 95.2404 10.7573 94.8204 10.916C94.4097 11.0747 93.9524 11.154 93.4484 11.154ZM93.4624 10.146C93.7424 10.146 94.013 10.09 94.2744 9.978C94.5357 9.85667 94.7644 9.684 94.9604 9.46C95.1564 9.236 95.315 8.96067 95.4364 8.634C95.5577 8.298 95.6184 7.91067 95.6184 7.472C95.6184 6.62267 95.4224 5.95533 95.0304 5.47C94.6384 4.98467 94.1064 4.742 93.4344 4.742C92.7624 4.742 92.2257 4.98933 91.8244 5.484C91.4324 5.96933 91.2364 6.63667 91.2364 7.486C91.2364 8.30733 91.4324 8.956 91.8244 9.432C92.2164 9.908 92.7624 10.146 93.4624 10.146ZM98.2398 3.762H99.4298V6.646H103.098V3.762H104.288V11H103.098V7.668H99.4298V11H98.2398V3.762ZM109.154 11.154C108.575 11.154 108.066 11.0607 107.628 10.874C107.198 10.6873 106.839 10.426 106.55 10.09C106.26 9.754 106.041 9.35267 105.892 8.886C105.752 8.41933 105.682 7.91067 105.682 7.36C105.682 6.81867 105.766 6.31933 105.934 5.862C106.102 5.39533 106.335 4.994 106.634 4.658C106.942 4.322 107.301 4.06067 107.712 3.874C108.132 3.68733 108.589 3.594 109.084 3.594C109.728 3.594 110.26 3.72933 110.68 4C111.109 4.26133 111.45 4.59733 111.702 5.008C111.963 5.41867 112.14 5.86667 112.234 6.352C112.336 6.83733 112.378 7.29933 112.36 7.738H106.942C106.932 8.05533 106.97 8.35867 107.054 8.648C107.138 8.928 107.273 9.18 107.46 9.404C107.646 9.61867 107.884 9.79133 108.174 9.922C108.463 10.0527 108.804 10.118 109.196 10.118C109.7 10.118 110.11 10.0013 110.428 9.768C110.754 9.53467 110.969 9.18 111.072 8.704H112.248C112.089 9.52533 111.739 10.1413 111.198 10.552C110.656 10.9533 109.975 11.154 109.154 11.154ZM111.1 6.688C111.081 6.408 111.016 6.142 110.904 5.89C110.801 5.638 110.656 5.42333 110.47 5.246C110.292 5.05933 110.078 4.91467 109.826 4.812C109.583 4.7 109.312 4.644 109.014 4.644C108.706 4.644 108.426 4.7 108.174 4.812C107.931 4.91467 107.721 5.05933 107.544 5.246C107.366 5.43267 107.226 5.652 107.124 5.904C107.021 6.14667 106.96 6.408 106.942 6.688H111.1ZM116.673 11.154C116.095 11.154 115.586 11.0607 115.147 10.874C114.718 10.6873 114.359 10.426 114.069 10.09C113.78 9.754 113.561 9.35267 113.411 8.886C113.271 8.41933 113.201 7.91067 113.201 7.36C113.201 6.81867 113.285 6.31933 113.453 5.862C113.621 5.39533 113.855 4.994 114.153 4.658C114.461 4.322 114.821 4.06067 115.231 3.874C115.651 3.68733 116.109 3.594 116.603 3.594C117.247 3.594 117.779 3.72933 118.199 4C118.629 4.26133 118.969 4.59733 119.221 5.008C119.483 5.41867 119.66 5.86667 119.753 6.352C119.856 6.83733 119.898 7.29933 119.879 7.738H114.461C114.452 8.05533 114.489 8.35867 114.573 8.648C114.657 8.928 114.793 9.18 114.979 9.404C115.166 9.61867 115.404 9.79133 115.693 9.922C115.983 10.0527 116.323 10.118 116.715 10.118C117.219 10.118 117.63 10.0013 117.947 9.768C118.274 9.53467 118.489 9.18 118.591 8.704H119.767C119.609 9.52533 119.259 10.1413 118.717 10.552C118.176 10.9533 117.495 11.154 116.673 11.154ZM118.619 6.688C118.601 6.408 118.535 6.142 118.423 5.89C118.321 5.638 118.176 5.42333 117.989 5.246C117.812 5.05933 117.597 4.91467 117.345 4.812C117.103 4.7 116.832 4.644 116.533 4.644C116.225 4.644 115.945 4.7 115.693 4.812C115.451 4.91467 115.241 5.05933 115.063 5.246C114.886 5.43267 114.746 5.652 114.643 5.904C114.541 6.14667 114.48 6.408 114.461 6.688H118.619Z" fill="black"/>
<path d="M0 12.75H120.215V13.45H0V12.75Z" fill="black"/>
</svg>
