<svg width="32" height="45" viewBox="0 0 32 45" fill="none" xmlns="http://www.w3.org/2000/svg">
<g id="&#208;&#152;&#208;&#186;&#208;&#190;&#208;&#189;&#208;&#186;&#208;&#176;">
<path id="Union" fill-rule="evenodd" clip-rule="evenodd" d="M6.61786 13.7149C7.88899 13.1733 8.46222 11.6945 7.98989 10.4517C7.75837 9.8425 8.06072 9.19958 8.57016 8.98252C9.07954 8.76548 9.71826 9.00749 9.94977 9.61665C10.4221 10.8595 11.8029 11.5057 13.0741 10.9641C14.3452 10.4225 14.9184 8.9437 14.4461 7.70088L14.4461 7.70083C13.2705 4.60795 9.86837 3.07213 6.81789 4.37186C3.76746 5.67156 2.31807 9.27445 3.49356 12.3675C3.96578 13.61 5.34647 14.2566 6.61786 13.7149ZM12.5466 9.57625C13.0338 9.36867 13.2728 8.78958 13.0802 8.28285C12.1844 5.92587 9.61175 4.79405 7.34534 5.7597C5.07892 6.72536 3.96367 9.42848 4.85944 11.7855C5.05199 12.2921 5.60313 12.5347 6.09041 12.3271C6.57761 12.1195 6.81659 11.5404 6.62401 11.0337C6.1128 9.68854 6.74919 8.14581 8.04271 7.59467C9.33614 7.04358 10.8044 7.68956 11.3157 9.03468C11.5082 9.54141 12.0594 9.78383 12.5466 9.57625ZM9.7877 27.2312C9.23997 26.901 8.98317 26.2478 9.10652 25.6297L11.6165 28.3333L9.7877 27.2312ZM11.6169 28.3335L11.6165 28.3333L15.3393 32.3434L9.02054 28.5352L9.02052 28.5352C7.66298 27.7171 7.20211 25.8986 8.01137 24.45L9.10652 25.6297L9.10657 25.6294L11.6169 28.3335ZM11.6169 28.3335L16.1472 31.0638C17.157 31.7786 18.4841 31.9683 19.7076 31.4467L22.3352 30.3266C24.4806 29.412 25.6182 26.8247 24.7358 24.5016L22.3959 18.3417C22.1321 17.6476 21.4268 17.2791 20.7481 17.4423C20.6724 17.4605 20.5971 17.4853 20.5228 17.517C20.2635 17.6275 20.0509 17.8073 19.8965 18.0273C19.7634 18.2169 19.6734 18.4364 19.6339 18.6673L19.4612 18.2129C19.3012 17.7915 18.9785 17.4902 18.5978 17.3548C18.3469 17.2656 18.0709 17.2486 17.7997 17.3167C17.7287 17.3346 17.658 17.3582 17.5882 17.388C17.2481 17.533 16.9884 17.7971 16.8347 18.115C16.7703 18.2483 16.7245 18.391 16.6993 18.5383L16.5798 18.2237C16.4041 17.7611 16.0323 17.4431 15.603 17.3307C15.3901 17.275 15.1631 17.2698 14.9388 17.3225C14.8609 17.3408 14.7833 17.3662 14.7067 17.3988C14.2241 17.6046 13.9033 18.0503 13.8178 18.5491L13.1369 16.7565L12.2123 14.3226C11.9192 13.551 11.0806 13.1817 10.3393 13.4977C9.59796 13.8138 9.23457 14.6955 9.52767 15.4671L12.6499 23.6864L13.5202 25.9773L11.462 24.7369L11.2519 24.6103C10.5649 24.1962 9.68003 24.4472 9.27578 25.171C9.19385 25.3176 9.13794 25.4724 9.10657 25.6294L8.01149 24.4498C8.59987 23.3966 9.69049 22.8396 10.7688 22.9118L8.16189 16.0493C7.58957 14.5426 8.28585 12.7604 9.81206 12.1098C11.3383 11.4592 13.0058 12.2337 13.5781 13.7404L14.4078 15.9244C15.2165 15.6557 16.0473 15.7719 16.7201 16.1721C16.8286 16.1082 16.9423 16.0507 17.061 16.0001C17.9969 15.6011 18.9859 15.738 19.743 16.2511C19.8244 16.2069 19.9086 16.1661 19.9955 16.129C21.5217 15.4784 23.1891 16.2529 23.7616 17.7593L23.7616 17.7595L23.7629 17.7629L23.7642 17.7663L23.7656 17.7699L23.767 17.7736L23.7684 17.7773L23.7699 17.7812L23.7714 17.7851L23.7729 17.7892L23.7745 17.7934L23.7761 17.7976L23.7778 17.802L23.7795 17.8064L23.7812 17.8109L23.7829 17.8156L23.7847 17.8203L23.7866 17.8251L23.7884 17.8301L23.7904 17.8351L23.7923 17.8402L23.7943 17.8454L23.7963 17.8507L23.7983 17.8561L23.8004 17.8616L23.8025 17.8671L23.8047 17.8728L23.8069 17.8786L23.8091 17.8844L23.8113 17.8903L23.8136 17.8964L23.816 17.9025L23.8183 17.9087L23.8207 17.915L23.8231 17.9214L23.8256 17.9278L23.8281 17.9344L23.8306 17.941L23.8332 17.9478L23.8357 17.9546L23.8384 17.9615L23.841 17.9685L23.8437 17.9755L23.8464 17.9827L23.8492 17.99L23.852 17.9973L23.8548 18.0047L23.8576 18.0122L23.8605 18.0198L23.8634 18.0274L23.8664 18.0352L23.8693 18.043L23.8723 18.0509L23.8754 18.0589L23.8784 18.0669L23.8815 18.0751L23.8846 18.0833L23.8878 18.0916L23.891 18.1L23.8942 18.1084L23.8974 18.117L23.9007 18.1256L23.904 18.1343L23.9073 18.1431L23.9107 18.1519L23.9141 18.1608L23.9175 18.1698L23.921 18.1789L23.9244 18.1881L23.9279 18.1973L23.9315 18.2066L23.935 18.216L23.9386 18.2254L23.9422 18.2349L23.9459 18.2445L23.9495 18.2542L23.9532 18.2639L23.957 18.2737L23.9607 18.2836L23.9645 18.2935L23.9683 18.3036L23.9721 18.3136L23.976 18.3238L23.9799 18.334L23.9838 18.3443L23.9877 18.3547L23.9917 18.3651L23.9957 18.3756L23.9997 18.3862L24.0037 18.3968L24.0078 18.4075L24.0119 18.4183L24.016 18.4291L24.0201 18.44L24.0243 18.451L24.0285 18.462L24.0327 18.4731L24.0369 18.4842L24.0412 18.4955L24.0455 18.5067L24.0498 18.5181L24.0541 18.5295L24.0585 18.541L24.0629 18.5525L24.0673 18.5641L24.0717 18.5757L24.0761 18.5874L24.0806 18.5992L24.0851 18.611L24.0896 18.6229L24.0942 18.6349L24.0987 18.6469L24.1033 18.6589L24.1079 18.671L24.1125 18.6832L24.1172 18.6954L24.1218 18.7077L24.1265 18.7201L24.1312 18.7325L24.136 18.7449L24.1407 18.7574L24.1455 18.77L24.1503 18.7826L24.1551 18.7953L24.1599 18.808L24.1648 18.8208L24.1697 18.8336L24.1746 18.8465L24.1795 18.8594L24.1844 18.8724L24.1893 18.8854L24.1943 18.8985L24.1993 18.9117L24.2043 18.9248L24.2093 18.9381L24.2144 18.9514L24.2195 18.9647L24.2245 18.9781L24.2296 18.9915L24.2348 19.005L24.2399 19.0185L24.245 19.032L24.2502 19.0457L24.2554 19.0593L24.2606 19.073L24.2658 19.0868L24.2711 19.1006L24.2763 19.1144L24.2816 19.1283L24.2869 19.1422L24.2922 19.1562L24.2975 19.1702L24.3028 19.1842L24.3082 19.1983L24.3136 19.2125L24.319 19.2266L24.3244 19.2408L24.3298 19.2551L24.3352 19.2694L24.3406 19.2837L24.3461 19.2981L24.3516 19.3125L24.3571 19.327L24.3626 19.3415L24.3681 19.356L24.3736 19.3705L24.3792 19.3851L24.3847 19.3998L24.3903 19.4144L24.3959 19.4292L24.4015 19.4439L24.4071 19.4587L24.4127 19.4735L24.4184 19.4883L24.424 19.5032L24.4297 19.5181L24.4354 19.5331L24.441 19.548L24.4468 19.5631L24.4525 19.5781L24.4582 19.5932L24.4639 19.6083L24.4697 19.6234L24.4754 19.6386L24.4812 19.6538L24.487 19.669L24.4928 19.6842L24.4986 19.6995L24.5044 19.7148L24.5102 19.7301L24.5161 19.7455L24.5219 19.7609L24.5278 19.7763L24.5336 19.7918L24.5395 19.8072L24.5454 19.8227L24.5513 19.8382L24.5572 19.8538L24.5631 19.8693L24.569 19.8849L24.575 19.9005L24.5809 19.9162L24.5868 19.9318L24.5928 19.9475L24.5988 19.9632L24.6047 19.979L24.6107 19.9947L24.6167 20.0105L24.6227 20.0262L24.6287 20.0421L24.6347 20.0579L24.6407 20.0737L24.6468 20.0896L24.6528 20.1055L24.6588 20.1214L24.6649 20.1373L24.6709 20.1532L24.677 20.1692L24.6831 20.1851L24.6891 20.2011L24.6952 20.2171L24.7013 20.2331L24.7074 20.2492L24.7135 20.2652L24.7196 20.2813L24.7257 20.2973L24.7318 20.3134L24.7379 20.3295L24.744 20.3456L24.7501 20.3617L24.7563 20.3779L24.7624 20.394L24.7685 20.4102L24.7747 20.4263L24.7808 20.4425L24.787 20.4587L24.7931 20.4749L24.7993 20.4911L24.8054 20.5073L24.8116 20.5235L24.8178 20.5398L24.8239 20.556L24.8301 20.5722L24.8363 20.5885L24.8425 20.6047L24.8486 20.621L24.8548 20.6373L24.861 20.6535L24.8672 20.6698L24.8734 20.6861L24.8795 20.7024L24.8857 20.7187L24.8919 20.735L24.8981 20.7512L24.9043 20.7675L24.9105 20.7838L24.9167 20.8001L24.9229 20.8164L24.9291 20.8327L24.9353 20.849L24.9414 20.8653L24.9476 20.8816L24.9538 20.8979L24.96 20.9142L24.9662 20.9305L24.9724 20.9468L24.9786 20.9631L24.9848 20.9794L24.991 20.9957L24.9971 21.012L25.0033 21.0283L25.0095 21.0445L25.0157 21.0608L25.0219 21.0771L25.028 21.0933L25.0342 21.1096L25.0404 21.1258L25.0466 21.1421L25.0527 21.1583L25.0589 21.1745L25.0651 21.1907L25.0712 21.2069L25.0774 21.2231L25.0835 21.2393L25.0897 21.2555L25.0958 21.2717L25.1019 21.2878L25.1081 21.304L25.1142 21.3201L25.1203 21.3363L25.1265 21.3524L25.1326 21.3685L25.1387 21.3846L25.1448 21.4006L25.1509 21.4167L25.157 21.4328L25.1631 21.4488L25.1692 21.4648L25.1753 21.4808L25.1813 21.4968L25.1874 21.5128L25.1935 21.5288L25.1995 21.5447L25.2056 21.5606L25.2116 21.5765L25.2176 21.5924L25.2237 21.6083L25.2297 21.6242L25.2357 21.64L25.2417 21.6558L25.2477 21.6716L25.2537 21.6874L25.2597 21.7032L25.2657 21.7189L25.2717 21.7346L25.2776 21.7503L25.2836 21.766L25.2895 21.7816L25.2954 21.7973L25.3014 21.8129L25.3073 21.8284L25.3132 21.844L25.3191 21.8595L25.325 21.875L25.3309 21.8905L25.3367 21.906L25.3426 21.9214L25.3485 21.9368L25.3543 21.9522L25.3601 21.9675L25.366 21.9829L25.3718 21.9982L25.3776 22.0134L25.3834 22.0287L25.3891 22.0439L25.3949 22.0591L25.4007 22.0742L25.4064 22.0893L25.4121 22.1044L25.4179 22.1195L25.4236 22.1345L25.4293 22.1495L25.4349 22.1645L25.4406 22.1794L25.4463 22.1943L25.4519 22.2092L25.4576 22.224L25.4632 22.2388L25.4688 22.2535L25.4744 22.2683L25.48 22.283L25.4855 22.2976L25.4911 22.3122L25.4966 22.3268L25.5021 22.3414L25.5077 22.3559L25.5132 22.3704L25.5186 22.3848L25.5241 22.3992L25.5296 22.4136L25.535 22.4279L25.5404 22.4422L25.5458 22.4564L25.5512 22.4706L25.5566 22.4847L25.562 22.4989L25.5673 22.5129L25.5726 22.527L25.578 22.541L25.5833 22.5549L25.5885 22.5688L25.5938 22.5827L25.5991 22.5965L25.6043 22.6103L25.6095 22.624L25.6147 22.6377L25.6199 22.6513L25.625 22.6649L25.6302 22.6785L25.6353 22.692L25.6404 22.7054L25.6455 22.7188L25.6506 22.7322L25.6557 22.7455L25.6607 22.7588L25.6657 22.772L25.6707 22.7851L25.6757 22.7983L25.6807 22.8113L25.6856 22.8243L25.6905 22.8373L25.6954 22.8502L25.7003 22.8631L25.7052 22.8759L25.71 22.8886L25.7148 22.9013L25.7197 22.914L25.7244 22.9266L25.7292 22.9391L25.7339 22.9516L25.7387 22.964L25.7434 22.9764L25.748 22.9887L25.7527 23.001L25.7573 23.0132L25.762 23.0254L25.7666 23.0374L25.7711 23.0495L25.7757 23.0615L25.7802 23.0734L25.7847 23.0852L25.7892 23.097L25.7937 23.1088L25.7981 23.1205L25.8025 23.1321L25.8069 23.1437L25.8113 23.1552L25.8156 23.1666L25.8199 23.178L25.8242 23.1893L25.8285 23.2006L25.8328 23.2117L25.837 23.2229L25.8412 23.2339L25.8454 23.2449L25.8495 23.2559L25.8537 23.2667L25.8578 23.2775L25.8618 23.2883L25.8659 23.299L25.8699 23.3096L25.8739 23.3201L25.8779 23.3306L25.8819 23.341L25.8858 23.3513L25.8897 23.3616L25.8936 23.3718L25.8974 23.3819L25.9012 23.392L25.905 23.402L25.9088 23.4119L25.9125 23.4217L25.9162 23.4315L25.9199 23.4412L25.9236 23.4509L25.9272 23.4604L25.9308 23.4699L25.9344 23.4793L25.938 23.4887L25.9415 23.4979L25.945 23.5071L25.9484 23.5162L25.9519 23.5253L25.9553 23.5343L25.9587 23.5431L25.962 23.552L25.9653 23.5607L25.9686 23.5694L25.9719 23.578L25.9751 23.5865L25.9783 23.5949L25.9815 23.6032L25.9846 23.6115L25.9877 23.6197L25.9908 23.6278L25.9939 23.6358L25.9969 23.6438L25.9999 23.6517L26.0028 23.6595L26.0058 23.6672L26.0087 23.6748L26.0115 23.6823L26.0144 23.6898L26.0172 23.6972L26.0199 23.7045L26.0227 23.7117L26.0254 23.7188L26.0281 23.7258L26.0307 23.7328L26.0333 23.7397L26.0359 23.7464L26.0384 23.7531L26.0409 23.7597L26.0434 23.7663L26.0459 23.7727L26.0483 23.779L26.0506 23.7853L26.053 23.7915L26.0553 23.7975L26.0576 23.8035L26.0598 23.8094L26.062 23.8152L26.0642 23.821L26.0663 23.8266L26.0684 23.8321L26.0705 23.8376L26.0725 23.8429L26.0745 23.8482L26.0765 23.8534L26.0784 23.8584L26.0803 23.8634L26.0822 23.8683L26.084 23.8731L26.0858 23.8778L26.0875 23.8824L26.0892 23.8869L26.0909 23.8913L26.0925 23.8956L26.0941 23.8998L26.0957 23.9039L26.0972 23.9079L26.0987 23.9119L26.1002 23.9157L26.1016 23.9194C27.2708 26.9973 25.7735 30.4735 22.8624 31.7145L20.2348 32.8346C18.5394 33.5574 16.7179 33.2969 15.3393 32.3434L11.6169 28.3335ZM18.3486 34.5555L26.3361 31.1565C27.5697 30.6315 28.9118 31.2565 29.3711 32.4635L30.2343 34.7323C30.6935 35.9393 30.1348 37.3732 28.9011 37.8982L20.9137 41.2972C19.68 41.8221 18.3379 41.1971 17.8786 39.9901L17.0154 37.7213C16.5562 36.5144 17.115 35.0804 18.3486 34.5555ZM18.8766 35.9431L26.864 32.5441C27.3157 32.3519 27.8266 32.5761 28.0049 33.0448L28.8682 35.3136C29.0465 35.7824 28.8249 36.3183 28.3732 36.5105L20.3857 39.9095C19.934 40.1017 19.4231 39.8775 19.2448 39.4088L18.3815 37.14C18.2032 36.6712 18.4248 36.1353 18.8766 35.9431Z" fill="url(#paint0_linear_2611_3749)"/>
</g>
<defs>
<linearGradient id="paint0_linear_2611_3749" x1="2.27391" y1="-9.5362" x2="22.1454" y2="36.7641" gradientUnits="userSpaceOnUse">
<stop stop-color="#FF3535"/>
<stop offset="1" stop-color="#FFCCCC"/>
</linearGradient>
</defs>
</svg>
