<svg width="32" height="45" viewBox="0 0 32 45" fill="none" xmlns="http://www.w3.org/2000/svg">
<path fill-rule="evenodd" clip-rule="evenodd" d="M6.61811 13.7149C7.88923 13.1734 8.46247 11.6946 7.99014 10.4517C7.75862 9.84254 8.06097 9.19961 8.5704 8.98255C9.07979 8.76552 9.71851 9.00752 9.95002 9.61669C10.4223 10.8595 11.8032 11.5057 13.0743 10.9641C14.3454 10.4225 14.9187 8.94374 14.4464 7.70092L14.4463 7.70087C13.2708 4.60799 9.86862 3.07217 6.81814 4.3719C3.76771 5.6716 2.31832 9.27449 3.49381 12.3675C3.96603 13.61 5.34672 14.2567 6.61811 13.7149ZM12.5469 9.57629C13.0341 9.36871 13.2731 8.78961 13.0805 8.28289C12.1846 5.9259 9.612 4.79408 7.34559 5.75974C5.07917 6.7254 3.96391 9.42852 4.85969 11.7855C5.05224 12.2922 5.60338 12.5347 6.09066 12.3271C6.57786 12.1195 6.81684 11.5404 6.62426 11.0337C6.11305 9.68858 6.74944 8.14584 8.04296 7.59471C9.33639 7.04362 10.8047 7.6896 11.3159 9.03472C11.5085 9.54145 12.0597 9.78387 12.5469 9.57629ZM9.78795 27.2312C9.24022 26.9011 8.98342 26.2478 9.10677 25.6297L11.6167 28.3334L9.78795 27.2312ZM11.6171 28.3336L11.6167 28.3334L15.3396 32.3434L9.02079 28.5353L9.02077 28.5353C7.66323 27.7171 7.20236 25.8986 8.01162 24.4501L9.10677 25.6297L9.10682 25.6295L11.6171 28.3336ZM11.6171 28.3336L16.1474 31.0639C17.1572 31.7787 18.4843 31.9683 19.7078 31.4467L22.3354 30.3266C24.4809 29.412 25.6185 26.8247 24.7361 24.5017L22.3961 18.3418C22.1324 17.6477 21.4271 17.2791 20.7483 17.4423C20.6727 17.4605 20.5974 17.4853 20.523 17.517C20.2638 17.6275 20.0512 17.8073 19.8967 18.0274C19.7636 18.217 19.6736 18.4365 19.6341 18.6673L19.4615 18.2129C19.3015 17.7916 18.9787 17.4902 18.598 17.3549C18.3472 17.2657 18.0712 17.2486 17.7999 17.3168C17.7289 17.3346 17.6583 17.3583 17.5885 17.388C17.2484 17.533 16.9886 17.7972 16.835 18.115C16.7706 18.2483 16.7248 18.391 16.6995 18.5383L16.58 18.2237C16.4043 17.7612 16.0326 17.4432 15.6032 17.3308C15.3904 17.275 15.1634 17.2698 14.9391 17.3226C14.8612 17.3409 14.7836 17.3662 14.707 17.3989C14.2244 17.6046 13.9035 18.0504 13.8181 18.5491L13.1371 16.7566L12.2126 14.3226C11.9195 13.5511 11.0809 13.1817 10.3395 13.4978C9.59821 13.8138 9.23482 14.6955 9.52792 15.4671L12.6502 23.6865L13.5204 25.9774L11.4623 24.737L11.2521 24.6103C10.5651 24.1962 9.68028 24.4473 9.27603 25.171C9.1941 25.3176 9.13818 25.4724 9.10682 25.6295L8.01174 24.4499C8.60012 23.3966 9.69074 22.8396 10.769 22.9119L8.16214 16.0493C7.58981 14.5427 8.2861 12.7605 9.81231 12.1098C11.3385 11.4592 13.006 12.2338 13.5784 13.7404L14.408 15.9245C15.2167 15.6557 16.0475 15.7719 16.7204 16.1721C16.8288 16.1083 16.9425 16.0507 17.0612 16.0001C17.9971 15.6011 18.9862 15.7381 19.7432 16.2511C19.8247 16.2069 19.9089 16.1661 19.9958 16.1291C21.522 15.4785 23.1894 16.253 23.7618 17.7594L23.7619 17.7595L23.7632 17.7629L23.7645 17.7664L23.7658 17.7699L23.7672 17.7736L23.7687 17.7774L23.7701 17.7812L23.7716 17.7852L23.7732 17.7892L23.7747 17.7934L23.7764 17.7976L23.778 17.802L23.7797 17.8064L23.7814 17.811L23.7832 17.8156L23.785 17.8204L23.7868 17.8252L23.7887 17.8301L23.7906 17.8351L23.7925 17.8402L23.7945 17.8454L23.7965 17.8507L23.7986 17.8561L23.8007 17.8616L23.8028 17.8672L23.8049 17.8728L23.8071 17.8786L23.8093 17.8844L23.8116 17.8904L23.8139 17.8964L23.8162 17.9025L23.8186 17.9087L23.821 17.915L23.8234 17.9214L23.8258 17.9279L23.8283 17.9344L23.8308 17.9411L23.8334 17.9478L23.836 17.9546L23.8386 17.9615L23.8413 17.9685L23.844 17.9756L23.8467 17.9827L23.8494 17.99L23.8522 17.9973L23.855 18.0047L23.8579 18.0122L23.8608 18.0198L23.8637 18.0275L23.8666 18.0352L23.8696 18.043L23.8726 18.0509L23.8756 18.0589L23.8787 18.067L23.8818 18.0751L23.8849 18.0833L23.888 18.0916L23.8912 18.1L23.8944 18.1085L23.8977 18.117L23.901 18.1256L23.9043 18.1343L23.9076 18.1431L23.911 18.1519L23.9143 18.1609L23.9178 18.1699L23.9212 18.1789L23.9247 18.1881L23.9282 18.1973L23.9317 18.2066L23.9353 18.216L23.9389 18.2254L23.9425 18.235L23.9461 18.2445L23.9498 18.2542L23.9535 18.2639L23.9572 18.2738L23.961 18.2836L23.9648 18.2936L23.9686 18.3036L23.9724 18.3137L23.9762 18.3238L23.9801 18.3341L23.984 18.3444L23.988 18.3547L23.9919 18.3652L23.9959 18.3757L23.9999 18.3862L24.004 18.3969L24.0081 18.4076L24.0121 18.4183L24.0163 18.4292L24.0204 18.4401L24.0246 18.451L24.0287 18.462L24.033 18.4731L24.0372 18.4843L24.0415 18.4955L24.0457 18.5068L24.05 18.5181L24.0544 18.5295L24.0587 18.541L24.0631 18.5525L24.0675 18.5641L24.0719 18.5758L24.0764 18.5875L24.0809 18.5992L24.0854 18.6111L24.0899 18.6229L24.0944 18.6349L24.099 18.6469L24.1035 18.659L24.1082 18.6711L24.1128 18.6832L24.1174 18.6955L24.1221 18.7078L24.1268 18.7201L24.1315 18.7325L24.1362 18.745L24.141 18.7575L24.1457 18.77L24.1505 18.7827L24.1553 18.7953L24.1602 18.808L24.165 18.8208L24.1699 18.8337L24.1748 18.8465L24.1797 18.8595L24.1846 18.8724L24.1896 18.8855L24.1946 18.8986L24.1996 18.9117L24.2046 18.9249L24.2096 18.9381L24.2146 18.9514L24.2197 18.9647L24.2248 18.9781L24.2299 18.9915L24.235 19.005L24.2401 19.0185L24.2453 19.0321L24.2505 19.0457L24.2556 19.0594L24.2609 19.0731L24.2661 19.0868L24.2713 19.1006L24.2766 19.1144L24.2818 19.1283L24.2871 19.1422L24.2924 19.1562L24.2978 19.1702L24.3031 19.1843L24.3084 19.1984L24.3138 19.2125L24.3192 19.2267L24.3246 19.2409L24.33 19.2551L24.3354 19.2694L24.3409 19.2838L24.3464 19.2981L24.3518 19.3126L24.3573 19.327L24.3628 19.3415L24.3683 19.356L24.3739 19.3706L24.3794 19.3852L24.385 19.3998L24.3905 19.4145L24.3961 19.4292L24.4017 19.4439L24.4073 19.4587L24.413 19.4735L24.4186 19.4884L24.4243 19.5032L24.4299 19.5182L24.4356 19.5331L24.4413 19.5481L24.447 19.5631L24.4527 19.5781L24.4584 19.5932L24.4642 19.6083L24.4699 19.6234L24.4757 19.6386L24.4815 19.6538L24.4872 19.669L24.493 19.6843L24.4988 19.6995L24.5046 19.7149L24.5105 19.7302L24.5163 19.7455L24.5222 19.7609L24.528 19.7764L24.5339 19.7918L24.5398 19.8073L24.5456 19.8228L24.5515 19.8383L24.5574 19.8538L24.5633 19.8694L24.5693 19.885L24.5752 19.9006L24.5811 19.9162L24.5871 19.9319L24.593 19.9476L24.599 19.9633L24.605 19.979L24.611 19.9947L24.617 20.0105L24.623 20.0263L24.629 20.0421L24.635 20.0579L24.641 20.0738L24.647 20.0896L24.653 20.1055L24.6591 20.1214L24.6651 20.1373L24.6712 20.1533L24.6772 20.1692L24.6833 20.1852L24.6894 20.2012L24.6955 20.2172L24.7015 20.2332L24.7076 20.2492L24.7137 20.2652L24.7198 20.2813L24.7259 20.2974L24.732 20.3135L24.7382 20.3296L24.7443 20.3457L24.7504 20.3618L24.7565 20.3779L24.7627 20.3941L24.7688 20.4102L24.7749 20.4264L24.7811 20.4426L24.7872 20.4587L24.7934 20.4749L24.7995 20.4911L24.8057 20.5073L24.8119 20.5236L24.818 20.5398L24.8242 20.556L24.8304 20.5723L24.8365 20.5885L24.8427 20.6048L24.8489 20.621L24.8551 20.6373L24.8612 20.6536L24.8674 20.6699L24.8736 20.6861L24.8798 20.7024L24.886 20.7187L24.8922 20.735L24.8984 20.7513L24.9045 20.7676L24.9107 20.7839L24.9169 20.8002L24.9231 20.8165L24.9293 20.8328L24.9355 20.8491L24.9417 20.8654L24.9479 20.8817L24.9541 20.898L24.9603 20.9143L24.9665 20.9306L24.9726 20.9469L24.9788 20.9632L24.985 20.9794L24.9912 20.9957L24.9974 21.012L25.0036 21.0283L25.0098 21.0446L25.0159 21.0608L25.0221 21.0771L25.0283 21.0934L25.0345 21.1096L25.0406 21.1259L25.0468 21.1421L25.053 21.1583L25.0591 21.1745L25.0653 21.1908L25.0715 21.207L25.0776 21.2232L25.0838 21.2394L25.0899 21.2555L25.096 21.2717L25.1022 21.2879L25.1083 21.304L25.1145 21.3202L25.1206 21.3363L25.1267 21.3524L25.1328 21.3685L25.1389 21.3846L25.145 21.4007L25.1511 21.4168L25.1572 21.4328L25.1633 21.4488L25.1694 21.4649L25.1755 21.4809L25.1816 21.4969L25.1876 21.5128L25.1937 21.5288L25.1998 21.5447L25.2058 21.5607L25.2119 21.5766L25.2179 21.5925L25.2239 21.6084L25.2299 21.6242L25.236 21.64L25.242 21.6559L25.248 21.6717L25.254 21.6874L25.26 21.7032L25.2659 21.7189L25.2719 21.7346L25.2779 21.7503L25.2838 21.766L25.2898 21.7817L25.2957 21.7973L25.3016 21.8129L25.3075 21.8285L25.3135 21.844L25.3194 21.8596L25.3252 21.8751L25.3311 21.8906L25.337 21.906L25.3429 21.9214L25.3487 21.9368L25.3546 21.9522L25.3604 21.9676L25.3662 21.9829L25.372 21.9982L25.3778 22.0135L25.3836 22.0287L25.3894 22.0439L25.3951 22.0591L25.4009 22.0742L25.4066 22.0894L25.4124 22.1045L25.4181 22.1195L25.4238 22.1345L25.4295 22.1495L25.4352 22.1645L25.4409 22.1794L25.4465 22.1943L25.4522 22.2092L25.4578 22.224L25.4634 22.2388L25.469 22.2536L25.4746 22.2683L25.4802 22.283L25.4858 22.2977L25.4913 22.3123L25.4969 22.3269L25.5024 22.3414L25.5079 22.3559L25.5134 22.3704L25.5189 22.3848L25.5244 22.3992L25.5298 22.4136L25.5352 22.4279L25.5407 22.4422L25.5461 22.4564L25.5515 22.4706L25.5569 22.4848L25.5622 22.4989L25.5676 22.513L25.5729 22.527L25.5782 22.541L25.5835 22.555L25.5888 22.5689L25.5941 22.5827L25.5993 22.5965L25.6045 22.6103L25.6098 22.624L25.615 22.6377L25.6201 22.6514L25.6253 22.665L25.6304 22.6785L25.6356 22.692L25.6407 22.7055L25.6458 22.7189L25.6508 22.7322L25.6559 22.7455L25.6609 22.7588L25.666 22.772L25.671 22.7852L25.6759 22.7983L25.6809 22.8114L25.6858 22.8244L25.6908 22.8373L25.6957 22.8502L25.7006 22.8631L25.7054 22.8759L25.7103 22.8887L25.7151 22.9014L25.7199 22.914L25.7247 22.9266L25.7294 22.9391L25.7342 22.9516L25.7389 22.9641L25.7436 22.9764L25.7483 22.9888L25.753 23.001L25.7576 23.0132L25.7622 23.0254L25.7668 23.0375L25.7714 23.0495L25.7759 23.0615L25.7805 23.0734L25.785 23.0853L25.7894 23.0971L25.7939 23.1088L25.7983 23.1205L25.8028 23.1321L25.8072 23.1437L25.8115 23.1552L25.8159 23.1666L25.8202 23.178L25.8245 23.1893L25.8288 23.2006L25.833 23.2118L25.8372 23.2229L25.8414 23.234L25.8456 23.245L25.8498 23.2559L25.8539 23.2668L25.858 23.2776L25.8621 23.2883L25.8661 23.299L25.8702 23.3096L25.8742 23.3201L25.8782 23.3306L25.8821 23.341L25.886 23.3514L25.8899 23.3616L25.8938 23.3718L25.8977 23.382L25.9015 23.392L25.9053 23.402L25.909 23.4119L25.9128 23.4218L25.9165 23.4315L25.9202 23.4413L25.9238 23.4509L25.9275 23.4605L25.9311 23.4699L25.9347 23.4794L25.9382 23.4887L25.9417 23.498L25.9452 23.5072L25.9487 23.5163L25.9521 23.5253L25.9555 23.5343L25.9589 23.5432L25.9623 23.552L25.9656 23.5607L25.9689 23.5694L25.9721 23.578L25.9754 23.5865L25.9786 23.5949L25.9817 23.6033L25.9849 23.6115L25.988 23.6197L25.9911 23.6279L25.9941 23.6359L25.9971 23.6438L26.0001 23.6517L26.0031 23.6595L26.006 23.6672L26.0089 23.6748L26.0118 23.6824L26.0146 23.6898L26.0174 23.6972L26.0202 23.7045L26.0229 23.7117L26.0256 23.7188L26.0283 23.7259L26.0309 23.7328L26.0335 23.7397L26.0361 23.7465L26.0387 23.7532L26.0412 23.7598L26.0437 23.7663L26.0461 23.7727L26.0485 23.7791L26.0509 23.7853L26.0532 23.7915L26.0555 23.7976L26.0578 23.8036L26.0601 23.8095L26.0623 23.8153L26.0644 23.821L26.0666 23.8266L26.0687 23.8322L26.0707 23.8376L26.0728 23.843L26.0748 23.8482L26.0767 23.8534L26.0787 23.8585L26.0806 23.8634L26.0824 23.8683L26.0842 23.8731L26.086 23.8778L26.0878 23.8824L26.0895 23.8869L26.0911 23.8913L26.0928 23.8956L26.0944 23.8998L26.096 23.904L26.0975 23.908L26.099 23.9119L26.1004 23.9157L26.1018 23.9194C27.271 26.9974 25.7738 30.4736 22.8626 31.7146L20.2351 32.8347C18.5396 33.5574 16.7181 33.2969 15.3396 32.3434L11.6171 28.3336ZM18.3488 34.5555L26.3363 31.1565C27.5699 30.6316 28.9121 31.2566 29.3713 32.4635L30.2346 34.7323C30.6938 35.9393 30.135 37.3732 28.9014 37.8982L20.9139 41.2972C19.6803 41.8222 18.3381 41.1971 17.8789 39.9902L17.0157 37.7214C16.5564 36.5144 17.1152 35.0805 18.3488 34.5555ZM18.8768 35.9432L26.8643 32.5442C27.316 32.3519 27.8268 32.5761 28.0052 33.0449L28.8684 35.3137C29.0468 35.7824 28.8251 36.3183 28.3734 36.5106L20.3859 39.9096C19.9342 40.1018 19.4234 39.8776 19.245 39.4088L18.3818 37.14C18.2034 36.6713 18.4251 36.1354 18.8768 35.9432Z" fill="url(#paint0_linear_1359_2416)"/>
<defs>
<linearGradient id="paint0_linear_1359_2416" x1="2.27391" y1="-9.5362" x2="22.1454" y2="36.7641" gradientUnits="userSpaceOnUse">
<stop stop-color="#FF3535"/>
<stop offset="1" stop-color="#FFCCCC"/>
</linearGradient>
</defs>
</svg>
