<svg width="260" height="113" viewBox="0 0 260 113" fill="none" xmlns="http://www.w3.org/2000/svg">
<g filter="url(#filter0_i_891_5598)">
<path fill-rule="evenodd" clip-rule="evenodd" d="M37.9455 111.037C4.06055 107.768 -25.8335 97.3267 -44.6032 87.6504L-1.27276 3.59942C7.53522 8.14016 25.865 14.8699 47.0239 16.9107C67.9904 18.9329 87.7984 16.0311 103.869 6.2953C121.956 -4.66156 136.623 -22.4062 147.657 -42.5378C158.708 -62.6992 164.364 -82.0837 166.097 -91.8799L259.214 -75.4075C255.708 -55.5912 246.649 -26.4028 230.58 2.91385C214.495 32.2601 189.637 64.8986 152.866 87.1745C114.079 110.672 72.0229 114.323 37.9455 111.037Z" fill="#FF3535" fill-opacity="0.24"/>
</g>
<defs>
<filter id="filter0_i_891_5598" x="-44.6033" y="-91.8799" width="303.817" height="203.953" filterUnits="userSpaceOnUse" color-interpolation-filters="sRGB">
<feFlood flood-opacity="0" result="BackgroundImageFix"/>
<feBlend mode="normal" in="SourceGraphic" in2="BackgroundImageFix" result="shape"/>
<feColorMatrix in="SourceAlpha" type="matrix" values="0 0 0 0 0 0 0 0 0 0 0 0 0 0 0 0 0 0 127 0" result="hardAlpha"/>
<feOffset/>
<feGaussianBlur stdDeviation="48.55"/>
<feComposite in2="hardAlpha" operator="arithmetic" k2="-1" k3="1"/>
<feColorMatrix type="matrix" values="0 0 0 0 0.0941176 0 0 0 0 0.0980392 0 0 0 0 0.101961 0 0 0 0.26 0"/>
<feBlend mode="normal" in2="shape" result="effect1_innerShadow_891_5598"/>
</filter>
</defs>
</svg>
