<svg width="40" height="40" viewBox="0 0 40 40" fill="none" xmlns="http://www.w3.org/2000/svg">
<circle cx="20" cy="20" r="20" fill="#18191A"/>
<path fill-rule="evenodd" clip-rule="evenodd" d="M18.3021 13.7344H18.325H22.175H22.1979C23.0448 13.7344 23.712 13.7344 24.249 13.7782C24.7967 13.823 25.2542 13.916 25.6699 14.1278C26.349 14.4738 26.9012 15.026 27.2472 15.7051C27.459 16.1208 27.552 16.5783 27.5968 17.126C27.6406 17.663 27.6406 18.3302 27.6406 19.1771V19.2V20.3V20.3229C27.6406 21.1698 27.6406 21.837 27.5968 22.374C27.552 22.9217 27.459 23.3792 27.2472 23.7949C26.9012 24.474 26.349 25.0262 25.6699 25.3722C25.2542 25.584 24.7967 25.677 24.249 25.7218C23.712 25.7656 23.0449 25.7656 22.1979 25.7656H22.175H18.325H18.3021C17.4551 25.7656 16.788 25.7656 16.251 25.7218C15.7033 25.677 15.2458 25.584 14.8301 25.3722C14.151 25.0262 13.5988 24.474 13.2528 23.7949C13.041 23.3792 12.948 22.9217 12.9032 22.374C12.8594 21.837 12.8594 21.1698 12.8594 20.3229V20.3V19.2V19.1771C12.8594 18.3302 12.8594 17.663 12.9032 17.126C12.948 16.5783 13.041 16.1208 13.2528 15.7051C13.5988 15.026 14.151 14.4738 14.8301 14.1278C15.2458 13.916 15.7033 13.823 16.251 13.7782C16.788 13.7344 17.4552 13.7344 18.3021 13.7344ZM15.6933 16.2086C15.4461 16.0673 15.1311 16.1532 14.9898 16.4004C14.8485 16.6477 14.9344 16.9627 15.1817 17.1039L19.6531 19.659C20.023 19.8704 20.477 19.8704 20.8469 19.659L25.3183 17.1039C25.5656 16.9627 25.6515 16.6477 25.5102 16.4004C25.3689 16.1532 25.0539 16.0673 24.8067 16.2086L20.3353 18.7637C20.2824 18.7938 20.2176 18.7938 20.1647 18.7637L15.6933 16.2086Z" fill="white"/>
</svg>
