<svg width="40" height="40" viewBox="0 0 40 40" fill="none" xmlns="http://www.w3.org/2000/svg">
<circle cx="20" cy="20" r="20" fill="#25BB18"/>
<path d="M26.6665 23.2802V25.2802C26.6672 25.4659 26.6292 25.6497 26.5548 25.8198C26.4804 25.9899 26.3713 26.1426 26.2345 26.2681C26.0977 26.3937 25.9362 26.4892 25.7603 26.5487C25.5844 26.6082 25.398 26.6303 25.2131 26.6136C23.1617 26.3907 21.1911 25.6897 19.4598 24.5669C17.849 23.5433 16.4834 22.1777 15.4598 20.5669C14.3331 18.8277 13.632 16.8476 13.4131 14.7869C13.3965 14.6025 13.4184 14.4167 13.4775 14.2413C13.5365 14.0659 13.6315 13.9047 13.7563 13.768C13.8811 13.6313 14.033 13.522 14.2023 13.4472C14.3716 13.3725 14.5547 13.3337 14.7398 13.3336H16.7398C17.0633 13.3304 17.377 13.4449 17.6223 13.6559C17.8676 13.8669 18.0278 14.1599 18.0731 14.4802C18.1575 15.1203 18.3141 15.7487 18.5398 16.3536C18.6295 16.5922 18.6489 16.8515 18.5957 17.1008C18.5426 17.3501 18.419 17.579 18.2398 17.7602V17.7602C17.7397 18.2603 17.6258 19.0406 18.0421 19.6124C18.6968 20.5117 19.4883 21.3032 20.3876 21.9579C20.9594 22.3742 21.7397 22.2603 22.2398 21.7602V21.7602C22.4211 21.581 22.6499 21.4575 22.8992 21.4043C23.1485 21.3511 23.4078 21.3705 23.6465 21.4602C24.2513 21.6859 24.8797 21.8425 25.5198 21.9269C25.8436 21.9726 26.1394 22.1357 26.3508 22.3852C26.5622 22.6348 26.6746 22.9533 26.6665 23.2802Z" fill="white"/>
</svg>
