<svg width="25" height="25" viewBox="0 0 25 25" fill="none" xmlns="http://www.w3.org/2000/svg">
<rect width="25" height="25" rx="5" fill="#F7F7F7"/>
<g clip-path="url(#clip0_1359_2130)">
<path d="M11.25 13.1255C11.5184 13.4843 11.8608 13.7812 12.2541 13.9961C12.6473 14.2109 13.0822 14.3387 13.5292 14.3707C13.9761 14.4027 14.4247 14.3382 14.8446 14.1816C15.2644 14.025 15.6457 13.7799 15.9625 13.463L17.8375 11.588C18.4067 10.9986 18.7217 10.2092 18.7146 9.38984C18.7075 8.57047 18.3788 7.78668 17.7994 7.20728C17.22 6.62788 16.4362 6.29923 15.6169 6.29211C14.7975 6.28499 14.0081 6.59997 13.4188 7.16922L12.3438 8.23797" stroke="#262626" stroke-linecap="round" stroke-linejoin="round"/>
<path d="M13.7499 11.8753C13.4815 11.5164 13.139 11.2195 12.7458 11.0047C12.3525 10.7898 11.9177 10.6621 11.4707 10.6301C11.0238 10.598 10.5751 10.6625 10.1553 10.8191C9.73544 10.9758 9.35418 11.2208 9.03738 11.5378L7.16238 13.4128C6.59314 14.0021 6.27815 14.7915 6.28527 15.6109C6.29239 16.4303 6.62105 17.214 7.20045 17.7934C7.77985 18.3728 8.56364 18.7015 9.383 18.7086C10.2024 18.7157 10.9917 18.4008 11.5811 17.8315L12.6499 16.7628" stroke="#262626" stroke-linecap="round" stroke-linejoin="round"/>
</g>
<defs>
<clipPath id="clip0_1359_2130">
<rect width="15" height="15" fill="white" transform="translate(5 5)"/>
</clipPath>
</defs>
</svg>
