<svg width="31" height="38" viewBox="0 0 31 38" fill="none" xmlns="http://www.w3.org/2000/svg">
<g clip-path="url(#clip0_1359_2392)">
<path d="M4.32221 30.1621C5.21104 29.276 5.21104 27.8393 4.32221 26.9532C3.43339 26.0671 1.99232 26.0671 1.1035 26.9532C0.214675 27.8393 0.214675 29.276 1.1035 30.1621C1.99232 31.0482 3.43339 31.0482 4.32221 30.1621Z" fill="#424242"/>
<path d="M2.71307 31.2649C1.22028 31.2649 0.00195312 30.0503 0.00195312 28.5554C0.00195312 27.0605 1.22028 25.8525 2.71307 25.8525C4.20585 25.8525 5.42418 27.0672 5.42418 28.5554C5.43088 30.0503 4.21255 31.2649 2.71307 31.2649ZM2.71307 26.7201C1.69556 26.7201 0.872188 27.5477 0.872188 28.5554C0.872188 29.5698 1.70226 30.3906 2.71307 30.3906C3.73057 30.3906 4.55395 29.5631 4.55395 28.5554C4.56064 27.541 3.73057 26.7201 2.71307 26.7201Z" fill="#FF3535"/>
<path d="M19.4418 0.433594H8.34966C5.32393 0.433594 2.86719 2.87616 2.86719 5.89935V32.1003C2.86719 35.1168 5.31723 37.566 8.34966 37.566H24.1679C27.1936 37.566 29.6503 35.1234 29.6503 32.1003V10.611L19.4418 0.433594Z" fill="#424242"/>
<path d="M24.1674 38H8.34923C5.0892 38 2.43164 35.3572 2.43164 32.1005V5.89954C2.43833 2.64278 5.0892 0 8.34923 0H19.4347C19.5485 0 19.6623 0.0467158 19.7426 0.1268L29.9511 10.3042C30.0315 10.3843 30.0783 10.4977 30.0783 10.6112V32.1005C30.085 35.3505 27.4341 38 24.1674 38ZM8.34923 0.86758C5.57118 0.86758 3.30188 3.12329 3.30188 5.89954V32.1005C3.30188 34.87 5.56448 37.1324 8.34923 37.1324H24.1674C26.9455 37.1324 29.2148 34.8767 29.2148 32.1005V10.7914L19.2606 0.86758H8.34923Z" fill="#FF3535"/>
<path d="M19.4414 0.432617L29.6499 10.61H21.617C20.4121 10.61 19.4414 9.63564 19.4414 8.44105V0.432617Z" fill="#424242"/>
<path d="M29.6495 11.0442H21.6166C20.1773 11.0442 19.0059 9.87634 19.0059 8.44149V0.433065C19.0059 0.259549 19.113 0.0993802 19.2736 0.0326433C19.4343 -0.0340936 19.6217 -0.000725172 19.7489 0.126075L29.9373 10.2834C30.0311 10.3635 30.0846 10.477 30.0846 10.6104C30.0846 10.8507 29.8905 11.0442 29.6495 11.0442ZM19.8761 1.48083V8.44149C19.8761 9.40251 20.6593 10.1767 21.6166 10.1767H28.5985L19.8761 1.48083Z" fill="#FF3535"/>
<path d="M2.92075 15.4551C1.56854 15.4551 0.470703 16.5496 0.470703 17.8976V28.1284H0.517562C0.738468 27.0006 1.7292 26.153 2.92075 26.153H27.6019V15.4551H2.92075Z" fill="#424242"/>
<path d="M0.517132 28.5624H0.470273C0.229285 28.5624 0.0351562 28.3689 0.0351562 28.1286V17.8978C0.0351562 16.3095 1.32712 15.0215 2.92032 15.0215H27.6015C27.8425 15.0215 28.0366 15.215 28.0366 15.4553V26.1532C28.0366 26.3935 27.8425 26.587 27.6015 26.587H2.92032C1.95637 26.587 1.1263 27.2677 0.938861 28.2154C0.905391 28.4156 0.72465 28.5624 0.517132 28.5624ZM2.92032 15.8891C1.8091 15.8891 0.905391 16.79 0.905391 17.8978V26.5336C1.42753 26.0264 2.1438 25.7127 2.92032 25.7127H27.1664V15.8891H2.92032Z" fill="#FF3535"/>
<path d="M7.03711 18.1786C7.03711 17.9984 7.18438 17.8516 7.35843 17.8516H9.19931C10.498 17.8516 11.3548 18.539 11.3548 19.6735V19.6868C11.3548 20.9281 10.3172 21.5688 9.08551 21.5688H7.68644V23.3106C7.68644 23.4908 7.53917 23.6377 7.35843 23.6377C7.18438 23.6377 7.03711 23.4908 7.03711 23.3106V18.1786ZM9.11228 20.9815C10.0695 20.9815 10.6921 20.4743 10.6921 19.7135V19.7002C10.6921 18.8793 10.0762 18.4522 9.14575 18.4522H7.68644V20.9815H9.11228Z" fill="#FF3535"/>
<path d="M12.5391 18.1786C12.5391 17.9984 12.6863 17.8516 12.8604 17.8516H14.5406C16.3547 17.8516 17.6065 19.0929 17.6065 20.7079V20.7212C17.6065 22.3363 16.3547 23.5976 14.5406 23.5976H12.8604C12.6863 23.5976 12.5391 23.4508 12.5391 23.2706V18.1786ZM14.5406 23.0037C15.9999 23.0037 16.9304 22.0159 16.9304 20.7413V20.7279C16.9304 19.4532 15.9999 18.4522 14.5406 18.4522H13.1884V23.0037H14.5406Z" fill="#FF3535"/>
<path d="M18.9863 18.1786C18.9863 17.9984 19.1336 17.8516 19.3076 17.8516H22.8756C23.043 17.8516 23.1701 17.985 23.1701 18.1452C23.1701 18.312 23.0363 18.4522 22.8756 18.4522H19.6357V20.5077H22.5007C22.6681 20.5077 22.7953 20.6412 22.7953 20.8013C22.7953 20.9682 22.6614 21.095 22.5007 21.095H19.6357V23.3106C19.6357 23.4908 19.4884 23.6377 19.3076 23.6377C19.1336 23.6377 18.9863 23.4908 18.9863 23.3106V18.1786Z" fill="#FF3535"/>
</g>
<defs>
<clipPath id="clip0_1359_2392">
<rect width="30.0833" height="38" fill="white"/>
</clipPath>
</defs>
</svg>
