<svg width="250" height="218" viewBox="0 0 250 218" fill="none" xmlns="http://www.w3.org/2000/svg">
<rect width="83.3333" height="83.3333" transform="matrix(0.5 -0.866025 1 2.20305e-08 0 217.18)" fill="url(#paint0_linear_714_342)"/>
<rect width="83.3333" height="83.3333" transform="matrix(0.5 0.866025 1 -2.20305e-08 0 72.8423)" fill="url(#paint1_linear_714_342)"/>
<rect width="83.3333" height="83.3333" transform="matrix(0.5 -0.866025 1 2.20305e-08 0 72.8423)" fill="url(#paint2_linear_714_342)"/>
<rect width="83.3333" height="83.3333" transform="matrix(0.5 -0.866025 1 2.20305e-08 62.5 217.18)" fill="url(#paint3_linear_714_342)"/>
<rect width="83.3333" height="83.3333" transform="matrix(0.5 0.866025 1 -2.20305e-08 62.5 72.8423)" fill="url(#paint4_linear_714_342)"/>
<rect width="83.3333" height="83.3333" transform="matrix(0.5 -0.866025 1 2.20305e-08 62.5 72.8423)" fill="url(#paint5_linear_714_342)"/>
<rect width="83.3333" height="83.3333" transform="matrix(0.5 -0.866025 1 2.20305e-08 125 217.18)" fill="url(#paint6_linear_714_342)"/>
<rect width="83.3333" height="83.3333" transform="matrix(0.5 0.866025 1 -2.20305e-08 125 72.8423)" fill="url(#paint7_linear_714_342)"/>
<rect width="83.3333" height="83.3333" transform="matrix(0.5 -0.866025 1 2.20305e-08 125 72.8423)" fill="url(#paint8_linear_714_342)"/>
<defs>
<linearGradient id="paint0_linear_714_342" x1="41.6667" y1="0" x2="41.6667" y2="83.3333" gradientUnits="userSpaceOnUse">
<stop stop-color="#FF3535"/>
<stop offset="1" stop-color="#18191A"/>
</linearGradient>
<linearGradient id="paint1_linear_714_342" x1="41.6667" y1="0" x2="41.6667" y2="83.3333" gradientUnits="userSpaceOnUse">
<stop stop-color="#FF3535"/>
<stop offset="1" stop-color="#18191A"/>
</linearGradient>
<linearGradient id="paint2_linear_714_342" x1="41.6667" y1="0" x2="41.6667" y2="83.3333" gradientUnits="userSpaceOnUse">
<stop stop-color="#FF3535"/>
<stop offset="1" stop-color="#18191A"/>
</linearGradient>
<linearGradient id="paint3_linear_714_342" x1="41.6667" y1="0" x2="41.6667" y2="83.3333" gradientUnits="userSpaceOnUse">
<stop stop-color="#FF3535"/>
<stop offset="1" stop-color="#18191A"/>
</linearGradient>
<linearGradient id="paint4_linear_714_342" x1="41.6667" y1="0" x2="41.6667" y2="83.3333" gradientUnits="userSpaceOnUse">
<stop stop-color="#FF3535"/>
<stop offset="1" stop-color="#18191A"/>
</linearGradient>
<linearGradient id="paint5_linear_714_342" x1="41.6667" y1="0" x2="41.6667" y2="83.3333" gradientUnits="userSpaceOnUse">
<stop stop-color="#FF3535"/>
<stop offset="1" stop-color="#18191A"/>
</linearGradient>
<linearGradient id="paint6_linear_714_342" x1="41.6667" y1="0" x2="41.6667" y2="83.3333" gradientUnits="userSpaceOnUse">
<stop stop-color="#FF3535"/>
<stop offset="1" stop-color="#18191A"/>
</linearGradient>
<linearGradient id="paint7_linear_714_342" x1="41.6667" y1="0" x2="41.6667" y2="83.3333" gradientUnits="userSpaceOnUse">
<stop stop-color="#FF3535"/>
<stop offset="1" stop-color="#18191A"/>
</linearGradient>
<linearGradient id="paint8_linear_714_342" x1="41.6667" y1="0" x2="41.6667" y2="83.3333" gradientUnits="userSpaceOnUse">
<stop stop-color="#FF3535"/>
<stop offset="1" stop-color="#18191A"/>
</linearGradient>
</defs>
</svg>
