<svg width="358" height="239" viewBox="0 0 358 239" fill="none" xmlns="http://www.w3.org/2000/svg">
<path d="M177.766 16.6129C200.454 3.20674 226.939 -2.32105 253.095 0.890292C279.252 4.10164 303.613 15.8719 322.384 34.3682C341.156 52.8646 353.285 77.0489 356.882 103.155C360.479 129.262 355.343 155.825 342.273 178.709C329.204 201.593 308.934 219.513 284.621 229.678C260.307 239.844 233.315 241.685 207.846 234.915C182.378 228.144 159.862 213.142 143.807 192.245C127.751 171.347 119.056 145.727 119.076 119.374L238.538 119.462L177.766 16.6129Z" fill="url(#paint0_linear_728_344)"/>
<path d="M178.77 223.162C155.916 236.233 129.384 241.388 103.299 237.826C77.2129 234.264 53.0345 222.184 34.5216 203.464C16.0087 184.744 4.19828 160.433 0.926122 134.31C-2.34604 108.186 3.10333 81.7128 16.4272 59.0053C29.7511 36.2978 50.2031 18.6278 74.6045 8.74179C99.0058 -1.14424 125.989 -2.69249 151.361 4.33767C176.733 11.3678 199.072 26.5826 214.906 47.6171C230.74 68.6517 239.181 94.3276 238.918 120.654L119.462 119.462L178.77 223.162Z" fill="url(#paint1_linear_728_344)"/>
<defs>
<linearGradient id="paint0_linear_728_344" x1="242.79" y1="119.849" x2="242.79" y2="-5.4053e-06" gradientUnits="userSpaceOnUse">
<stop stop-color="#FF3535"/>
<stop offset="1" stop-color="#FF3535" stop-opacity="0"/>
</linearGradient>
<linearGradient id="paint1_linear_728_344" x1="119.849" y1="119.849" x2="119.849" y2="238.924" gradientUnits="userSpaceOnUse">
<stop stop-color="#FF3535"/>
<stop offset="1" stop-color="#FF3535" stop-opacity="0"/>
</linearGradient>
</defs>
</svg>
