<svg width="883" height="580" viewBox="0 0 883 580" fill="none" xmlns="http://www.w3.org/2000/svg">
<g filter="url(#filter0_i_716_345)">
<path fill-rule="evenodd" clip-rule="evenodd" d="M797.169 218.418C835.696 255.22 862.372 296.987 876.104 327.05L741.481 388.538C735.038 374.431 718.997 348.418 694.94 325.438C671.101 302.666 643.924 287.074 614.734 283.504C581.882 279.487 546.671 287.129 513.619 301.222C480.519 315.335 454.807 333.712 443.198 344.088L344.573 233.738C368.056 212.75 407.439 185.603 455.57 165.081C503.75 144.537 565.908 128.431 632.698 136.598C703.149 145.214 758.423 181.407 797.169 218.418Z" fill="url(#paint0_linear_716_345)" fill-opacity="0.24"/>
</g>
<g filter="url(#filter1_i_716_345)">
<path fill-rule="evenodd" clip-rule="evenodd" d="M133.493 121.473C158.654 74.5081 191.766 37.6346 217.063 16.3648L312.309 129.644C300.438 139.625 279.662 162.037 263.951 191.363C248.383 220.423 240.625 250.779 244.991 279.862C249.904 312.592 266.683 344.477 289.1 372.557C311.55 400.678 336.133 420.54 349.235 428.952L269.275 553.493C242.772 536.476 206.083 505.786 173.438 464.895C140.76 423.962 108.619 368.374 98.6306 301.832C88.0943 231.643 108.19 168.704 133.493 121.473Z" fill="white" fill-opacity="0.24"/>
</g>
<rect width="113.334" height="113.334" transform="matrix(0.866025 0.5 -0.866025 0.5 401.15 285.666)" fill="url(#paint1_linear_716_345)"/>
<rect width="113.334" height="113.334" transform="matrix(0.866025 0.5 -0.866025 0.5 401.15 263)" fill="url(#paint2_linear_716_345)"/>
<rect width="113.334" height="113.334" transform="matrix(0.866025 0.5 -0.866025 0.5 401.15 240.334)" fill="url(#paint3_linear_716_345)"/>
<rect width="113.334" height="113.334" transform="matrix(0.866025 0.5 -0.866025 0.5 401.15 217.667)" fill="url(#paint4_linear_716_345)"/>
<rect width="113.334" height="113.334" transform="matrix(0.866025 0.5 -0.866025 0.5 401.15 195)" fill="url(#paint5_linear_716_345)"/>
<defs>
<filter id="filter0_i_716_345" x="344.573" y="134.432" width="531.531" height="254.106" filterUnits="userSpaceOnUse" color-interpolation-filters="sRGB">
<feFlood flood-opacity="0" result="BackgroundImageFix"/>
<feBlend mode="normal" in="SourceGraphic" in2="BackgroundImageFix" result="shape"/>
<feColorMatrix in="SourceAlpha" type="matrix" values="0 0 0 0 0 0 0 0 0 0 0 0 0 0 0 0 0 0 127 0" result="hardAlpha"/>
<feOffset/>
<feGaussianBlur stdDeviation="48.55"/>
<feComposite in2="hardAlpha" operator="arithmetic" k2="-1" k3="1"/>
<feColorMatrix type="matrix" values="0 0 0 0 0.0941176 0 0 0 0 0.0980392 0 0 0 0 0.101961 0 0 0 0.3 0"/>
<feBlend mode="normal" in2="shape" result="effect1_innerShadow_716_345"/>
</filter>
<filter id="filter1_i_716_345" x="95.7671" y="16.3652" width="253.468" height="537.127" filterUnits="userSpaceOnUse" color-interpolation-filters="sRGB">
<feFlood flood-opacity="0" result="BackgroundImageFix"/>
<feBlend mode="normal" in="SourceGraphic" in2="BackgroundImageFix" result="shape"/>
<feColorMatrix in="SourceAlpha" type="matrix" values="0 0 0 0 0 0 0 0 0 0 0 0 0 0 0 0 0 0 127 0" result="hardAlpha"/>
<feOffset/>
<feGaussianBlur stdDeviation="48.55"/>
<feComposite in2="hardAlpha" operator="arithmetic" k2="-1" k3="1"/>
<feColorMatrix type="matrix" values="0 0 0 0 0.0941176 0 0 0 0 0.0980392 0 0 0 0 0.101961 0 0 0 0.3 0"/>
<feBlend mode="normal" in2="shape" result="effect1_innerShadow_716_345"/>
</filter>
<linearGradient id="paint0_linear_716_345" x1="850.896" y1="104.196" x2="470.386" y2="356.117" gradientUnits="userSpaceOnUse">
<stop stop-color="white"/>
<stop offset="1" stop-color="white" stop-opacity="0"/>
</linearGradient>
<linearGradient id="paint1_linear_716_345" x1="113.921" y1="112.746" x2="-0.0118068" y2="114.359" gradientUnits="userSpaceOnUse">
<stop stop-color="#E7EAED" stop-opacity="0.6"/>
<stop offset="1" stop-color="#FF3535"/>
</linearGradient>
<linearGradient id="paint2_linear_716_345" x1="113.921" y1="112.746" x2="-0.0118068" y2="114.359" gradientUnits="userSpaceOnUse">
<stop stop-color="#E7EAED" stop-opacity="0.6"/>
<stop offset="1" stop-color="#FF3535"/>
</linearGradient>
<linearGradient id="paint3_linear_716_345" x1="113.921" y1="112.746" x2="-0.0118068" y2="114.359" gradientUnits="userSpaceOnUse">
<stop stop-color="#E7EAED" stop-opacity="0.6"/>
<stop offset="1" stop-color="#FF3535"/>
</linearGradient>
<linearGradient id="paint4_linear_716_345" x1="113.921" y1="112.746" x2="-0.0118068" y2="114.359" gradientUnits="userSpaceOnUse">
<stop stop-color="#E7EAED" stop-opacity="0.6"/>
<stop offset="1" stop-color="#FF3535"/>
</linearGradient>
<linearGradient id="paint5_linear_716_345" x1="113.921" y1="112.746" x2="-0.0118068" y2="114.359" gradientUnits="userSpaceOnUse">
<stop stop-color="#E7EAED" stop-opacity="0.6"/>
<stop offset="1" stop-color="#FF3535"/>
</linearGradient>
</defs>
</svg>
