<svg width="90" height="90" viewBox="0 0 90 90" fill="none" xmlns="http://www.w3.org/2000/svg">
<path fill-rule="evenodd" clip-rule="evenodd" d="M73.3061 76.3693C80.6677 72.7703 82 69.3177 82 68C82 66.6823 80.6677 63.2297 73.3061 59.6307C66.4758 56.2914 56.4783 54 45 54C33.5217 54 23.5242 56.2914 16.6939 59.6307C9.33234 63.2297 8 66.6823 8 68C8 69.3177 9.33234 72.7703 16.6939 76.3693C23.5242 79.7086 33.5217 82 45 82C56.4783 82 66.4758 79.7086 73.3061 76.3693ZM45 90C69.8528 90 90 80.1503 90 68C90 55.8497 69.8528 46 45 46C20.1472 46 0 55.8497 0 68C0 80.1503 20.1472 90 45 90Z" fill="url(#paint0_linear_891_4701)"/>
<path fill-rule="evenodd" clip-rule="evenodd" d="M73.3061 53.3693C80.6677 49.7703 82 46.3177 82 45C82 43.6823 80.6677 40.2297 73.3061 36.6307C66.4758 33.2914 56.4783 31 45 31C33.5217 31 23.5242 33.2914 16.6939 36.6307C9.33234 40.2297 8 43.6823 8 45C8 46.3177 9.33234 49.7703 16.6939 53.3693C23.5242 56.7086 33.5217 59 45 59C56.4783 59 66.4758 56.7086 73.3061 53.3693ZM45 67C69.8528 67 90 57.1503 90 45C90 32.8497 69.8528 23 45 23C20.1472 23 0 32.8497 0 45C0 57.1503 20.1472 67 45 67Z" fill="url(#paint1_linear_891_4701)"/>
<path fill-rule="evenodd" clip-rule="evenodd" d="M73.3061 30.3693C80.6677 26.7703 82 23.3177 82 22C82 20.6823 80.6677 17.2297 73.3061 13.6307C66.4758 10.2914 56.4783 8 45 8C33.5217 8 23.5242 10.2914 16.6939 13.6307C9.33234 17.2297 8 20.6823 8 22C8 23.3177 9.33234 26.7703 16.6939 30.3693C23.5242 33.7086 33.5217 36 45 36C56.4783 36 66.4758 33.7086 73.3061 30.3693ZM45 44C69.8528 44 90 34.1503 90 22C90 9.84974 69.8528 0 45 0C20.1472 0 0 9.84974 0 22C0 34.1503 20.1472 44 45 44Z" fill="url(#paint2_linear_891_4701)"/>
<defs>
<linearGradient id="paint0_linear_891_4701" x1="74.5" y1="81" x2="74.5616" y2="46.0521" gradientUnits="userSpaceOnUse">
<stop stop-color="#FF3535"/>
<stop offset="0.494792" stop-color="#FFCCCC"/>
<stop offset="1" stop-color="white" stop-opacity="0"/>
</linearGradient>
<linearGradient id="paint1_linear_891_4701" x1="74.5" y1="58" x2="74.5616" y2="23.0521" gradientUnits="userSpaceOnUse">
<stop stop-color="#FF3535"/>
<stop offset="0.494792" stop-color="#FFCCCC"/>
<stop offset="1" stop-color="white" stop-opacity="0"/>
</linearGradient>
<linearGradient id="paint2_linear_891_4701" x1="74.5" y1="35" x2="74.5616" y2="0.0521082" gradientUnits="userSpaceOnUse">
<stop stop-color="#FF3535"/>
<stop offset="0.494792" stop-color="#FFCCCC"/>
<stop offset="1" stop-color="white" stop-opacity="0"/>
</linearGradient>
</defs>
</svg>
