<svg width="384" height="184" viewBox="0 0 384 184" fill="none" xmlns="http://www.w3.org/2000/svg">
<path d="M184.421 80.8421V0H199.579V80.8421H184.421Z" fill="url(#paint0_linear_464_2932)"/>
<path d="M173.703 184.421L122.331 133.049L133.05 122.331L184.421 173.702V101.053H199.579V173.702L250.95 122.331L261.669 133.049L210.297 184.421H282.947V199.579H210.298L261.669 250.95L250.95 261.668L199.579 210.297V282.947H184.421V210.297L133.05 261.668L122.331 250.95L173.702 199.579H101.053V184.421H173.703Z" fill="url(#paint1_linear_464_2932)"/>
<path d="M0 184.421H80.8421V199.579H0V184.421Z" fill="url(#paint2_linear_464_2932)"/>
<path d="M303.158 184.421H384V199.579H303.158V184.421Z" fill="url(#paint3_linear_464_2932)"/>
<path d="M184.421 303.158V384H199.579V303.158H184.421Z" fill="url(#paint4_linear_464_2932)"/>
<path d="M108.04 265.241L50.8763 322.405L61.5946 333.123L118.759 275.959L108.04 265.241Z" fill="url(#paint5_linear_464_2932)"/>
<path d="M265.241 108.04L322.405 50.876L333.124 61.5943L275.96 118.758L265.241 108.04Z" fill="url(#paint6_linear_464_2932)"/>
<path d="M275.96 265.241L333.124 322.405L322.405 333.123L265.241 275.959L275.96 265.241Z" fill="url(#paint7_linear_464_2932)"/>
<path d="M118.759 108.04L61.5947 50.876L50.8764 61.5943L108.04 118.758L118.759 108.04Z" fill="url(#paint8_linear_464_2932)"/>
<defs>
<linearGradient id="paint0_linear_464_2932" x1="192" y1="0" x2="192" y2="180" gradientUnits="userSpaceOnUse">
<stop stop-color="#FF3535"/>
<stop offset="1" stop-color="#18191A"/>
</linearGradient>
<linearGradient id="paint1_linear_464_2932" x1="192" y1="0" x2="192" y2="180" gradientUnits="userSpaceOnUse">
<stop stop-color="#FF3535"/>
<stop offset="1" stop-color="#18191A"/>
</linearGradient>
<linearGradient id="paint2_linear_464_2932" x1="192" y1="0" x2="192" y2="180" gradientUnits="userSpaceOnUse">
<stop stop-color="#FF3535"/>
<stop offset="1" stop-color="#18191A"/>
</linearGradient>
<linearGradient id="paint3_linear_464_2932" x1="192" y1="0" x2="192" y2="180" gradientUnits="userSpaceOnUse">
<stop stop-color="#FF3535"/>
<stop offset="1" stop-color="#18191A"/>
</linearGradient>
<linearGradient id="paint4_linear_464_2932" x1="192" y1="0" x2="192" y2="180" gradientUnits="userSpaceOnUse">
<stop stop-color="#FF3535"/>
<stop offset="1" stop-color="#18191A"/>
</linearGradient>
<linearGradient id="paint5_linear_464_2932" x1="192" y1="0" x2="192" y2="180" gradientUnits="userSpaceOnUse">
<stop stop-color="#FF3535"/>
<stop offset="1" stop-color="#18191A"/>
</linearGradient>
<linearGradient id="paint6_linear_464_2932" x1="192" y1="0" x2="192" y2="180" gradientUnits="userSpaceOnUse">
<stop stop-color="#FF3535"/>
<stop offset="1" stop-color="#18191A"/>
</linearGradient>
<linearGradient id="paint7_linear_464_2932" x1="192" y1="0" x2="192" y2="180" gradientUnits="userSpaceOnUse">
<stop stop-color="#FF3535"/>
<stop offset="1" stop-color="#18191A"/>
</linearGradient>
<linearGradient id="paint8_linear_464_2932" x1="192" y1="0" x2="192" y2="180" gradientUnits="userSpaceOnUse">
<stop stop-color="#FF3535"/>
<stop offset="1" stop-color="#18191A"/>
</linearGradient>
</defs>
</svg>
