<svg width="1094" height="681" viewBox="0 0 1094 681" fill="none" xmlns="http://www.w3.org/2000/svg">
<g style="mix-blend-mode:exclusion" opacity="0.2" filter="url(#filter0_i_425_2361)">
<path d="M448.071 -299.802C432.702 -165.125 469.73 -60.8239 523.279 -12.2123C616.519 72.3744 771.64 66.9033 778.923 138.578C785.371 199.481 641.623 278.822 579.29 405.65C529.525 507.48 529.317 580.114 544.325 682.344" stroke="url(#paint0_linear_425_2361)" stroke-width="11.4438" stroke-miterlimit="10" stroke-linecap="round"/>
<path d="M471.958 -289.541C457.919 -157.21 494.509 -54.2121 546.919 -5.9984C638.115 77.4906 789.325 73.3366 796.238 144.242C801.848 204.982 660.639 282.909 599.17 407.995C550.036 508.384 549.225 580.552 564.562 681.107" stroke="url(#paint1_linear_425_2361)" stroke-width="11.4438" stroke-miterlimit="10" stroke-linecap="round"/>
<path d="M495.913 -278.742C482.973 -148.456 519.356 -47.0632 570.627 0.75265C659.848 83.6791 807.614 80.2384 813.087 150.513C818.094 210.786 679.258 288.137 618.886 411.178C570.15 510.429 569.202 581.527 584.635 680.71" stroke="url(#paint2_linear_425_2361)" stroke-width="11.4438" stroke-miterlimit="10" stroke-linecap="round"/>
<path d="M520.101 -268.244C508.793 -140.071 544.203 -39.9127 594.637 7.73844C681.58 89.8691 825.669 87.4437 830.771 156.95C835.174 216.756 698.712 293.532 639.137 414.295C591.032 512.105 590.015 582.668 605.777 680.177" stroke="url(#paint3_linear_425_2361)" stroke-width="11.4438" stroke-miterlimit="10" stroke-linecap="round"/>
<path d="M543.754 -257.681C533.543 -131.551 568.747 -32.9987 618.043 14.2545C702.708 95.5894 843.12 94.1791 847.55 162.684C851.35 222.024 717.192 297.688 658.481 416.709C610.774 513.38 609.387 583.174 625.479 679.01" stroke="url(#paint4_linear_425_2361)" stroke-width="11.4438" stroke-miterlimit="10" stroke-linecap="round"/>
<path d="M567.71 -246.882C558.831 -123.099 593.596 -25.8499 641.519 21.3073C723.907 101.846 860.876 101.149 864.469 169.49C867.664 228.363 735.881 303.451 678.267 420.427C631.191 515.658 629.434 584.684 645.855 678.846" stroke="url(#paint5_linear_425_2361)" stroke-width="11.4438" stroke-miterlimit="10" stroke-linecap="round"/>
<path d="M591.666 -236.084C583.884 -114.345 618.21 -18.3991 665.53 28.2916C746.175 107.966 878.931 108.353 881.852 175.692C884.211 234.4 755.034 308.61 697.984 423.611C651.306 517.703 649.713 585.892 666.23 678.682" stroke="url(#paint6_linear_425_2361)" stroke-width="11.4438" stroke-miterlimit="10" stroke-linecap="round"/>
<path d="M615.388 -224.983C609.239 -105.357 642.824 -10.9481 689.005 35.3447C767.373 114.224 896.987 115.557 899.003 182.196C900.758 240.438 773.886 313.536 717.699 426.795C671.653 519.446 669.456 587.169 686.302 678.285" stroke="url(#paint7_linear_425_2361)" stroke-width="11.4438" stroke-miterlimit="10" stroke-linecap="round"/>
<path d="M638.807 -214.117C633.989 -96.8372 667.135 -3.73155 711.944 42.4652C788.034 120.548 913.971 122.897 915.081 188.836C916.233 246.612 791.734 319.134 736.646 430.348C690.997 521.861 688.663 588.513 705.839 677.955" stroke="url(#paint8_linear_425_2361)" stroke-width="11.4438" stroke-miterlimit="10" stroke-linecap="round"/>
<path d="M662.296 -202.714C658.576 -87.4789 691.283 4.32337 735.186 49.8203C809.232 126.806 931.492 130.17 931.999 195.642C932.546 252.951 810.422 324.897 756.129 433.834C711.111 523.906 708.407 589.79 725.98 678.094" stroke="url(#paint9_linear_425_2361)" stroke-width="11.4438" stroke-miterlimit="10" stroke-linecap="round"/>
<path d="M685.248 -191.244C682.858 -78.3548 715.126 12.144 757.96 57.7781C830.03 134.201 948.311 138.347 948.145 202.818C947.856 259.962 828.27 330.495 774.841 437.69C730.222 526.623 727.449 591.972 745.05 678.368" stroke="url(#paint10_linear_425_2361)" stroke-width="11.4438" stroke-miterlimit="10" stroke-linecap="round"/>
<path d="M707.97 -179.471C706.98 -68.3926 738.74 20.2677 780.435 65.504C850.227 141.131 965.065 145.99 964.062 210.297C963.169 266.975 845.956 336.931 793.625 442.081C749.637 529.574 746.494 594.155 764.726 679.11" stroke="url(#paint11_linear_425_2361)" stroke-width="11.4438" stroke-miterlimit="10" stroke-linecap="round"/>
<path d="M730.156 -167.63C730.496 -58.898 761.818 28.4589 802.374 73.2972C870.122 147.827 981.351 154.236 979.374 217.308C977.878 273.519 863.272 342.598 811.504 445.772C768.146 531.824 764.632 595.637 782.961 679.22" stroke="url(#paint12_linear_425_2361)" stroke-width="11.4438" stroke-miterlimit="10" stroke-linecap="round"/>
<path d="M752.108 -155.488C753.547 -48.7996 784.429 37.2538 824.148 81.9275C889.619 155.661 997.171 163.086 994.824 225.389C992.49 281.436 880.189 349.403 829.518 450.533C786.559 535.446 782.675 598.49 801.566 680.098" stroke="url(#paint13_linear_425_2361)" stroke-width="11.4438" stroke-miterlimit="10" stroke-linecap="round"/>
<path d="M773.523 -143.277C776.595 -38.7024 806.736 45.8144 845.316 90.0902C908.812 163.261 1012.62 171.166 1009.13 233.071C1006.19 288.652 896.267 356.043 846.461 455.431C804.133 538.903 800.18 601.412 819.167 681.648" stroke="url(#paint14_linear_425_2361)" stroke-width="11.4438" stroke-miterlimit="10" stroke-linecap="round"/>
<path d="M794.474 -130.46C798.876 -28.2315 828.579 54.9819 866.02 98.8597C927.471 170.933 1027.37 180.155 1023.51 241.292C1019.97 296.406 912.649 362.919 863.406 460.331C821.475 542.665 817.385 604.103 836.468 682.967" stroke="url(#paint15_linear_425_2361)" stroke-width="11.4438" stroke-miterlimit="10" stroke-linecap="round"/>
<path d="M814.888 -117.577C820.388 -17.3926 849.651 64.5173 886.256 108.231C945.429 179.508 1041.88 189.443 1037.12 249.881C1032.97 304.528 928.028 370.465 879.58 465.599C838.583 546.726 833.587 607.465 853.233 684.353" stroke="url(#paint16_linear_425_2361)" stroke-width="11.4438" stroke-miterlimit="10" stroke-linecap="round"/>
<path d="M834.837 -104.09C841.434 -5.94989 870.19 74.1216 905.423 117.739C962.552 187.918 1055.09 199.171 1049.73 259.142C1044.75 313.624 942.407 378.683 895.056 471.773C854.457 551.761 849.324 611.43 869.368 687.179" stroke="url(#paint17_linear_425_2361)" stroke-width="11.4438" stroke-miterlimit="10" stroke-linecap="round"/>
<path d="M853.718 -90.4653C861.948 5.56224 890.265 84.3303 924.359 127.549C979.211 196.933 1068.08 209.201 1062.34 268.403C1056.75 322.42 956.719 386.367 910.233 477.715C870.265 556.262 865.064 615.396 885.135 689.238" stroke="url(#paint18_linear_425_2361)" stroke-width="11.4438" stroke-miterlimit="10" stroke-linecap="round"/>
<path d="M872.129 -76.2379C881.69 17.4435 909.266 94.6748 942.523 137.729C995.632 206.249 1080.82 219.532 1073.88 277.801C1067.69 331.351 970.026 394.722 924.336 483.793C884.766 561.201 879.194 619.566 899.896 691.968" stroke="url(#paint19_linear_425_2361)" stroke-width="11.4438" stroke-miterlimit="10" stroke-linecap="round"/>
<path d="M889.771 -61.6384C900.663 29.6969 927.8 105.625 959.918 148.281C1010.75 216.005 1092.26 230.303 1084.71 288.106C1077.69 341.491 982.633 403.984 938.041 491.011C899.102 566.978 893.16 624.575 913.958 695.605" stroke="url(#paint20_linear_425_2361)" stroke-width="11.4438" stroke-miterlimit="10" stroke-linecap="round"/>
<path d="M906.649 -46.669C918.639 42.622 945.57 116.945 976.618 159.739C1025.41 226.365 1103.01 241.98 1094.79 298.781C1087.16 351.7 994.408 413.082 950.68 498.365C912.138 573.194 906.361 629.954 927.187 699.077" stroke="url(#paint21_linear_425_2361)" stroke-width="11.4438" stroke-miterlimit="10" stroke-linecap="round"/>
<path d="M922.755 -31.3296C936.378 55.8485 962.335 128.936 992.477 171.03C1038.99 236.861 1113.14 253.189 1104.32 309.524C1096.09 361.976 1005.71 422.782 962.546 506.09C924.636 579.478 918.255 635.772 939.712 703.454" stroke="url(#paint22_linear_425_2361)" stroke-width="11.4438" stroke-miterlimit="10" stroke-linecap="round"/>
<path d="M937.792 -15.8546C952.511 69.2793 978.263 140.762 1007.03 182.76C1051.5 247.493 1121.75 265.138 1112.02 320.773C1102.95 373.06 1015.41 432.686 973.11 514.252C935.597 586.501 929.079 641.725 950.632 708.035" stroke="url(#paint23_linear_425_2361)" stroke-width="11.4438" stroke-miterlimit="10" stroke-linecap="round"/>
<path d="M952.131 0.529205C968.182 83.317 993.494 153.496 1021.43 195.329C1064.15 259.198 1130.19 277.927 1120.09 332.794C1110.41 384.615 1024.95 443.431 983.745 522.952C946.864 593.761 939.975 648.216 961.857 712.853" stroke="url(#paint24_linear_425_2361)" stroke-width="11.4438" stroke-miterlimit="10" stroke-linecap="round"/>
<path d="M965.163 17.3489C982.311 98.0924 1007.42 166.666 1034.21 208.102C1074.66 271.174 1137.25 290.617 1126.24 344.784C1115.73 396.44 1032.88 454.379 992.469 531.622C955.985 601.292 949.028 655.212 971.24 718.175" stroke="url(#paint25_linear_425_2361)" stroke-width="11.4438" stroke-miterlimit="10" stroke-linecap="round"/>
<path d="M977.43 34.5426C996.211 113.173 1020.58 180.21 1046 221.55C1084.4 283.525 1143.08 304.284 1131.71 357.683C1120.59 408.873 1040.34 465.933 1000.8 541.434C964.947 609.664 957.619 662.816 980.16 724.104" stroke="url(#paint26_linear_425_2361)" stroke-width="11.4438" stroke-miterlimit="10" stroke-linecap="round"/>
<path d="M988.692 52.4043C1008.57 128.991 1032.73 194.423 1057.32 235.597C1093.67 296.474 1148.44 318.551 1136.16 371.25C1124.45 421.973 1046.57 478.458 1007.82 551.681C972.6 618.47 964.902 670.854 987.539 730.77" stroke="url(#paint27_linear_425_2361)" stroke-width="11.4438" stroke-miterlimit="10" stroke-linecap="round"/>
<path d="M998.652 70.7078C1019.86 144.948 1043.58 209.077 1067.03 249.853C1101.34 309.633 1152.44 332.725 1139.55 384.957C1127 435.516 1051.42 490.889 1013.77 562.068C978.952 627.718 970.883 679.333 994.151 737.809" stroke="url(#paint28_linear_425_2361)" stroke-width="11.4438" stroke-miterlimit="10" stroke-linecap="round"/>
<path d="M1007.61 89.6841C1030.45 161.811 1053.43 224.403 1075.51 265.084C1107.85 324.301 1154.96 348.175 1141.4 399.406C1127.94 449.264 1055.28 503.993 1018.26 573.731C984.07 637.941 975.933 689.021 999.228 745.59" stroke="url(#paint29_linear_425_2361)" stroke-width="11.4438" stroke-miterlimit="10" stroke-linecap="round"/>
<path d="M1015.03 109.4C1038.97 179.483 1061.75 240.47 1082.69 280.753C1112.98 338.872 1156.18 364.063 1142.02 414.827C1127.96 464.22 1057.67 518.372 1021.45 585.833C987.652 648.904 979.377 698.914 1003.07 754.343" stroke="url(#paint30_linear_425_2361)" stroke-width="11.4438" stroke-miterlimit="10" stroke-linecap="round"/>
<path d="M1021.45 129.787C1046.73 197.524 1069.06 257.207 1088.93 297.627C1117.18 354.648 1156.7 380.855 1141.64 430.919C1126.74 480.147 1058.75 533.188 1023.63 598.605C990.463 660.235 981.585 709.778 1005.84 763.232" stroke="url(#paint31_linear_425_2361)" stroke-width="11.4438" stroke-miterlimit="10" stroke-linecap="round"/>
<path d="M1026.57 150.615C1052.94 216.308 1075.07 274.385 1093.8 314.407C1120 370.331 1155.62 397.855 1140.18 447.151C1124.68 495.912 1059.3 548.075 1025.04 611.749C992.276 672.241 983.261 720.714 1007.61 772.796" stroke="url(#paint32_linear_425_2361)" stroke-width="11.4438" stroke-miterlimit="10" stroke-linecap="round"/>
<path d="M1030.39 171.882C1058.39 235.462 1079.78 292.003 1097.37 331.628C1121.83 386.687 1153.23 415.294 1136.89 463.891C1120.55 512.487 1057.78 563.772 1024.31 625.169C992.18 684.22 983.096 732.158 1007.54 782.868" stroke="url(#paint33_linear_425_2361)" stroke-width="11.4438" stroke-miterlimit="10" stroke-linecap="round"/>
<path d="M1032.43 194.191C1061.53 255.726 1082.71 310.662 1099.23 350.424C1121.65 404.386 1149.14 434.31 1132.43 482.138C1115.49 530.268 1054.79 580.743 1022.42 640.096C990.684 698.008 981.23 745.178 1006.24 793.912" stroke="url(#paint34_linear_425_2361)" stroke-width="11.4438" stroke-miterlimit="10" stroke-linecap="round"/>
<path d="M1033.47 217.171C1063.9 276.36 1084.65 329.993 1100.03 369.356C1120.4 422.221 1144.22 453.16 1126.6 500.288C1108.75 547.719 1050.96 597.549 1019.45 655.159C988.35 711.631 978.525 758.032 1003.63 805.395" stroke="url(#paint35_linear_425_2361)" stroke-width="11.4438" stroke-miterlimit="10" stroke-linecap="round"/>
<path d="M1032.68 240.661C1064.44 297.505 1084.74 349.834 1098.75 389.101C1117.38 441.101 1136.99 473.124 1118.76 519.786C1100.08 567.052 1044.59 615.771 1014.19 671.337C983.48 726.67 973.82 772.234 999.023 818.224" stroke="url(#paint36_linear_425_2361)" stroke-width="11.4438" stroke-miterlimit="10" stroke-linecap="round"/>
<path d="M1030.65 265.124C1063.81 320.156 1083.84 370.345 1096.47 409.517C1113.06 460.419 1128.75 493.759 1109.86 539.419C1090.57 586.218 1037.46 634.361 1007.61 687.952C977.539 741.844 967.275 786.942 993.04 830.956" stroke="url(#paint37_linear_425_2361)" stroke-width="11.4438" stroke-miterlimit="10" stroke-linecap="round"/>
<path d="M1027.08 290.328C1061.57 343.015 1081.16 391.9 1092.96 430.907C1108.04 480.642 1119.29 515.368 1100.02 560.26C1079.89 606.895 1029.62 653.858 1000.64 705.706C970.966 758.459 960.565 802.487 986.728 845.363" stroke="url(#paint38_linear_425_2361)" stroke-width="11.4438" stroke-miterlimit="10" stroke-linecap="round"/>
<path d="M1021.67 316.039C1057.26 366.681 1076.65 413.961 1087.07 452.872C1100.11 501.51 1107.68 537.251 1087.28 581.745C1066.24 627.68 1018.34 674.067 990.463 723.87C961.417 775.183 950.645 818.442 977.138 859.645" stroke="url(#paint39_linear_425_2361)" stroke-width="11.4438" stroke-miterlimit="10" stroke-linecap="round"/>
<path d="M1014.49 342.793C1051.41 391.089 1070.59 436.764 1079.65 475.578C1090.94 523.352 1094.3 560.177 1073.53 603.903C1051.89 649.371 1006.36 695.182 979.279 742.708C950.631 792.882 939.791 835.606 966.311 874.901" stroke="url(#paint40_linear_425_2361)" stroke-width="11.4438" stroke-miterlimit="10" stroke-linecap="round"/>
<path d="M1005.78 370.288C1044.33 416.47 1063.07 460.842 1070.99 499.258C1080.54 546.168 1079.69 584.077 1058.24 626.801C1035.77 672.104 993.082 716.735 966.862 762.519C938.844 811.252 927.634 853.208 954.552 891.364" stroke="url(#paint41_linear_425_2361)" stroke-width="11.4438" stroke-miterlimit="10" stroke-linecap="round"/>
<path d="M995.299 398.825C1034.95 442.964 1053.48 485.73 1060.03 524.05C1067.77 569.56 1062.7 608.553 1040.72 651.346C1017.64 696.183 977.031 740.004 951.908 783.743C924.289 831.338 912.941 872.224 940.189 908.706" stroke="url(#paint42_linear_425_2361)" stroke-width="11.4438" stroke-miterlimit="10" stroke-linecap="round"/>
<path d="M982.976 427.87C1023.96 469.662 1042.29 510.823 1047.46 549.048C1053.45 593.693 1044.18 633.769 1021.52 675.561C997.308 720 959.604 763.176 935.277 804.638C908.288 850.792 896.337 891.211 923.914 926.02" stroke="url(#paint43_linear_425_2361)" stroke-width="11.4438" stroke-miterlimit="10" stroke-linecap="round"/>
<path d="M968.653 458.261C1010.73 498.009 1029.16 537.798 1032.65 575.693C1036.91 619.474 1023.42 660.634 1000.4 701.657C975.576 745.63 940.177 787.695 917.016 827.647C890.426 872.663 878.639 912.245 906.545 945.38" stroke="url(#paint44_linear_425_2361)" stroke-width="11.4438" stroke-miterlimit="10" stroke-linecap="round"/>
<path d="M952.489 489.157C1159.51 667.935 791.146 857.65 886.499 965.081" stroke="url(#paint45_linear_425_2361)" stroke-width="11.4438" stroke-miterlimit="10" stroke-linecap="round"/>
</g>
<defs>
<filter id="filter0_i_425_2361" x="438.848" y="-305.524" width="711.83" height="1276.33" filterUnits="userSpaceOnUse" color-interpolation-filters="sRGB">
<feFlood flood-opacity="0" result="BackgroundImageFix"/>
<feBlend mode="normal" in="SourceGraphic" in2="BackgroundImageFix" result="shape"/>
<feColorMatrix in="SourceAlpha" type="matrix" values="0 0 0 0 0 0 0 0 0 0 0 0 0 0 0 0 0 0 127 0" result="hardAlpha"/>
<feOffset/>
<feGaussianBlur stdDeviation="4.5"/>
<feComposite in2="hardAlpha" operator="arithmetic" k2="-1" k3="1"/>
<feColorMatrix type="matrix" values="0 0 0 0 0.726416 0 0 0 0 0.69311 0 0 0 0 0.69311 0 0 0 0.83 0"/>
<feBlend mode="normal" in2="shape" result="effect1_innerShadow_425_2361"/>
</filter>
<linearGradient id="paint0_linear_425_2361" x1="719.373" y1="-97.6227" x2="273.164" y2="479.798" gradientUnits="userSpaceOnUse">
<stop stop-color="white"/>
<stop offset="0.9637" stop-color="white" stop-opacity="0.047149"/>
<stop offset="1" stop-color="white" stop-opacity="0"/>
</linearGradient>
<linearGradient id="paint1_linear_425_2361" x1="740.134" y1="-85.1522" x2="296.487" y2="477.045" gradientUnits="userSpaceOnUse">
<stop stop-color="white"/>
<stop offset="0.9637" stop-color="white" stop-opacity="0.0461012"/>
<stop offset="1" stop-color="white" stop-opacity="0"/>
</linearGradient>
<linearGradient id="paint2_linear_425_2361" x1="760.927" y1="-72.7109" x2="319.972" y2="474.484" gradientUnits="userSpaceOnUse">
<stop stop-color="white"/>
<stop offset="0.9637" stop-color="white" stop-opacity="0.0450535"/>
<stop offset="1" stop-color="white" stop-opacity="0"/>
</linearGradient>
<linearGradient id="paint3_linear_425_2361" x1="781.654" y1="-60.3389" x2="343.606" y2="471.971" gradientUnits="userSpaceOnUse">
<stop stop-color="white"/>
<stop offset="0.9637" stop-color="white" stop-opacity="0.0440057"/>
<stop offset="1" stop-color="white" stop-opacity="0"/>
</linearGradient>
<linearGradient id="paint4_linear_425_2361" x1="802.325" y1="-47.9648" x2="367.311" y2="469.693" gradientUnits="userSpaceOnUse">
<stop stop-color="white"/>
<stop offset="0.9637" stop-color="white" stop-opacity="0.042958"/>
<stop offset="1" stop-color="white" stop-opacity="0"/>
</linearGradient>
<linearGradient id="paint5_linear_425_2361" x1="822.841" y1="-35.6264" x2="391.065" y2="467.509" gradientUnits="userSpaceOnUse">
<stop stop-color="white"/>
<stop offset="0.9637" stop-color="white" stop-opacity="0.0419102"/>
<stop offset="1" stop-color="white" stop-opacity="0"/>
</linearGradient>
<linearGradient id="paint6_linear_425_2361" x1="843.217" y1="-23.2465" x2="414.796" y2="465.612" gradientUnits="userSpaceOnUse">
<stop stop-color="white"/>
<stop offset="0.9637" stop-color="white" stop-opacity="0.0408625"/>
<stop offset="1" stop-color="white" stop-opacity="0"/>
</linearGradient>
<linearGradient id="paint7_linear_425_2361" x1="863.342" y1="-10.8691" x2="438.47" y2="463.856" gradientUnits="userSpaceOnUse">
<stop stop-color="white"/>
<stop offset="0.9637" stop-color="white" stop-opacity="0.0398147"/>
<stop offset="1" stop-color="white" stop-opacity="0"/>
</linearGradient>
<linearGradient id="paint8_linear_425_2361" x1="883.242" y1="1.58485" x2="462.027" y2="462.43" gradientUnits="userSpaceOnUse">
<stop stop-color="white"/>
<stop offset="0.9637" stop-color="white" stop-opacity="0.038767"/>
<stop offset="1" stop-color="white" stop-opacity="0"/>
</linearGradient>
<linearGradient id="paint9_linear_425_2361" x1="902.803" y1="14.0717" x2="485.426" y2="461.195" gradientUnits="userSpaceOnUse">
<stop stop-color="white"/>
<stop offset="0.9637" stop-color="white" stop-opacity="0.0377192"/>
<stop offset="1" stop-color="white" stop-opacity="0"/>
</linearGradient>
<linearGradient id="paint10_linear_425_2361" x1="922.07" y1="26.6536" x2="508.65" y2="460.335" gradientUnits="userSpaceOnUse">
<stop stop-color="white"/>
<stop offset="0.9637" stop-color="white" stop-opacity="0.0366714"/>
<stop offset="1" stop-color="white" stop-opacity="0"/>
</linearGradient>
<linearGradient id="paint11_linear_425_2361" x1="940.873" y1="39.3458" x2="531.529" y2="459.718" gradientUnits="userSpaceOnUse">
<stop stop-color="white"/>
<stop offset="0.9637" stop-color="white" stop-opacity="0.0356237"/>
<stop offset="1" stop-color="white" stop-opacity="0"/>
</linearGradient>
<linearGradient id="paint12_linear_425_2361" x1="959.32" y1="52.1449" x2="554.186" y2="459.516" gradientUnits="userSpaceOnUse">
<stop stop-color="white"/>
<stop offset="0.9637" stop-color="white" stop-opacity="0.0345759"/>
<stop offset="1" stop-color="white" stop-opacity="0"/>
</linearGradient>
<linearGradient id="paint13_linear_425_2361" x1="977.208" y1="65.0922" x2="576.391" y2="459.607" gradientUnits="userSpaceOnUse">
<stop stop-color="white"/>
<stop offset="0.9637" stop-color="white" stop-opacity="0.0335282"/>
<stop offset="1" stop-color="white" stop-opacity="0"/>
</linearGradient>
<linearGradient id="paint14_linear_425_2361" x1="994.657" y1="78.1805" x2="598.277" y2="460.153" gradientUnits="userSpaceOnUse">
<stop stop-color="white"/>
<stop offset="0.9637" stop-color="white" stop-opacity="0.0324804"/>
<stop offset="1" stop-color="white" stop-opacity="0"/>
</linearGradient>
<linearGradient id="paint15_linear_425_2361" x1="1011.46" y1="91.4606" x2="619.608" y2="461.049" gradientUnits="userSpaceOnUse">
<stop stop-color="white"/>
<stop offset="0.9637" stop-color="white" stop-opacity="0.0314327"/>
<stop offset="1" stop-color="white" stop-opacity="0"/>
</linearGradient>
<linearGradient id="paint16_linear_425_2361" x1="1027.74" y1="104.914" x2="640.524" y2="462.436" gradientUnits="userSpaceOnUse">
<stop stop-color="white"/>
<stop offset="0.9637" stop-color="white" stop-opacity="0.0303849"/>
<stop offset="1" stop-color="white" stop-opacity="0"/>
</linearGradient>
<linearGradient id="paint17_linear_425_2361" x1="1043.29" y1="118.597" x2="660.78" y2="464.221" gradientUnits="userSpaceOnUse">
<stop stop-color="white"/>
<stop offset="0.9637" stop-color="white" stop-opacity="0.0293371"/>
<stop offset="1" stop-color="white" stop-opacity="0"/>
</linearGradient>
<linearGradient id="paint18_linear_425_2361" x1="1058.23" y1="132.492" x2="680.529" y2="466.539" gradientUnits="userSpaceOnUse">
<stop stop-color="white"/>
<stop offset="0.9637" stop-color="white" stop-opacity="0.0282894"/>
<stop offset="1" stop-color="white" stop-opacity="0"/>
</linearGradient>
<linearGradient id="paint19_linear_425_2361" x1="1072.38" y1="146.597" x2="699.584" y2="469.275" gradientUnits="userSpaceOnUse">
<stop stop-color="white"/>
<stop offset="0.9637" stop-color="white" stop-opacity="0.0272416"/>
<stop offset="1" stop-color="white" stop-opacity="0"/>
</linearGradient>
<linearGradient id="paint20_linear_425_2361" x1="1085.78" y1="161.068" x2="717.878" y2="472.64" gradientUnits="userSpaceOnUse">
<stop stop-color="white"/>
<stop offset="0.9637" stop-color="white" stop-opacity="0.0261939"/>
<stop offset="1" stop-color="white" stop-opacity="0"/>
</linearGradient>
<linearGradient id="paint21_linear_425_2361" x1="1098.34" y1="175.729" x2="735.457" y2="476.441" gradientUnits="userSpaceOnUse">
<stop stop-color="white"/>
<stop offset="0.9637" stop-color="white" stop-opacity="0.0251461"/>
<stop offset="1" stop-color="white" stop-opacity="0"/>
</linearGradient>
<linearGradient id="paint22_linear_425_2361" x1="1110.05" y1="190.798" x2="752.175" y2="480.915" gradientUnits="userSpaceOnUse">
<stop stop-color="white"/>
<stop offset="0.9637" stop-color="white" stop-opacity="0.0240984"/>
<stop offset="1" stop-color="white" stop-opacity="0"/>
</linearGradient>
<linearGradient id="paint23_linear_425_2361" x1="1120.84" y1="206.092" x2="768.069" y2="485.864" gradientUnits="userSpaceOnUse">
<stop stop-color="white"/>
<stop offset="0.9637" stop-color="white" stop-opacity="0.0230506"/>
<stop offset="1" stop-color="white" stop-opacity="0"/>
</linearGradient>
<linearGradient id="paint24_linear_425_2361" x1="1130.7" y1="221.84" x2="783.011" y2="491.534" gradientUnits="userSpaceOnUse">
<stop stop-color="white"/>
<stop offset="0.9637" stop-color="white" stop-opacity="0.0220029"/>
<stop offset="1" stop-color="white" stop-opacity="0"/>
</linearGradient>
<linearGradient id="paint25_linear_425_2361" x1="1139.55" y1="237.849" x2="797.018" y2="497.717" gradientUnits="userSpaceOnUse">
<stop stop-color="white"/>
<stop offset="0.9637" stop-color="white" stop-opacity="0.0209551"/>
<stop offset="1" stop-color="white" stop-opacity="0"/>
</linearGradient>
<linearGradient id="paint26_linear_425_2361" x1="1147.4" y1="254.357" x2="809.977" y2="504.668" gradientUnits="userSpaceOnUse">
<stop stop-color="white"/>
<stop offset="0.9637" stop-color="white" stop-opacity="0.0199074"/>
<stop offset="1" stop-color="white" stop-opacity="0"/>
</linearGradient>
<linearGradient id="paint27_linear_425_2361" x1="1154.13" y1="271.162" x2="821.896" y2="512.168" gradientUnits="userSpaceOnUse">
<stop stop-color="white"/>
<stop offset="0.9637" stop-color="white" stop-opacity="0.0188596"/>
<stop offset="1" stop-color="white" stop-opacity="0"/>
</linearGradient>
<linearGradient id="paint28_linear_425_2361" x1="1159.83" y1="288.44" x2="832.741" y2="520.435" gradientUnits="userSpaceOnUse">
<stop stop-color="white"/>
<stop offset="0.9637" stop-color="white" stop-opacity="0.0178118"/>
<stop offset="1" stop-color="white" stop-opacity="0"/>
</linearGradient>
<linearGradient id="paint29_linear_425_2361" x1="1164.25" y1="306.198" x2="842.297" y2="529.384" gradientUnits="userSpaceOnUse">
<stop stop-color="white"/>
<stop offset="0.9637" stop-color="white" stop-opacity="0.0167641"/>
<stop offset="1" stop-color="white" stop-opacity="0"/>
</linearGradient>
<linearGradient id="paint30_linear_425_2361" x1="1167.59" y1="324.398" x2="850.753" y2="539.089" gradientUnits="userSpaceOnUse">
<stop stop-color="white"/>
<stop offset="0.9637" stop-color="white" stop-opacity="0.0157163"/>
<stop offset="1" stop-color="white" stop-opacity="0"/>
</linearGradient>
<linearGradient id="paint31_linear_425_2361" x1="1169.56" y1="343.119" x2="857.814" y2="549.518" gradientUnits="userSpaceOnUse">
<stop stop-color="white"/>
<stop offset="0.9637" stop-color="white" stop-opacity="0.0146686"/>
<stop offset="1" stop-color="white" stop-opacity="0"/>
</linearGradient>
<linearGradient id="paint32_linear_425_2361" x1="1170.36" y1="362.329" x2="863.676" y2="560.745" gradientUnits="userSpaceOnUse">
<stop stop-color="white"/>
<stop offset="0.9637" stop-color="white" stop-opacity="0.0136208"/>
<stop offset="1" stop-color="white" stop-opacity="0"/>
</linearGradient>
<linearGradient id="paint33_linear_425_2361" x1="1169.72" y1="382.104" x2="868.041" y2="572.739" gradientUnits="userSpaceOnUse">
<stop stop-color="white"/>
<stop offset="0.9637" stop-color="white" stop-opacity="0.0125731"/>
<stop offset="1" stop-color="white" stop-opacity="0"/>
</linearGradient>
<linearGradient id="paint34_linear_425_2361" x1="1167.82" y1="402.409" x2="871.108" y2="585.564" gradientUnits="userSpaceOnUse">
<stop stop-color="white"/>
<stop offset="0.9637" stop-color="white" stop-opacity="0.0115253"/>
<stop offset="1" stop-color="white" stop-opacity="0"/>
</linearGradient>
<linearGradient id="paint35_linear_425_2361" x1="1164.39" y1="423.32" x2="872.572" y2="599.195" gradientUnits="userSpaceOnUse">
<stop stop-color="white"/>
<stop offset="0.9637" stop-color="white" stop-opacity="0.0104776"/>
<stop offset="1" stop-color="white" stop-opacity="0"/>
</linearGradient>
<linearGradient id="paint36_linear_425_2361" x1="1159.62" y1="444.812" x2="872.642" y2="613.699" gradientUnits="userSpaceOnUse">
<stop stop-color="white"/>
<stop offset="0.9637" stop-color="white" stop-opacity="0.01"/>
<stop offset="1" stop-color="white" stop-opacity="0"/>
</linearGradient>
<linearGradient id="paint37_linear_425_2361" x1="1153.4" y1="466.802" x2="871.081" y2="628.993" gradientUnits="userSpaceOnUse">
<stop stop-color="white"/>
<stop offset="0.9637" stop-color="white" stop-opacity="0.01"/>
<stop offset="1" stop-color="white" stop-opacity="0"/>
</linearGradient>
<linearGradient id="paint38_linear_425_2361" x1="1146.52" y1="489.089" x2="867.804" y2="645.343" gradientUnits="userSpaceOnUse">
<stop stop-color="white"/>
<stop offset="0.9637" stop-color="white" stop-opacity="0.01"/>
<stop offset="1" stop-color="white" stop-opacity="0"/>
</linearGradient>
<linearGradient id="paint39_linear_425_2361" x1="1138.68" y1="511.591" x2="862.788" y2="662.51" gradientUnits="userSpaceOnUse">
<stop stop-color="white"/>
<stop offset="0.9637" stop-color="white" stop-opacity="0.01"/>
<stop offset="1" stop-color="white" stop-opacity="0"/>
</linearGradient>
<linearGradient id="paint40_linear_425_2361" x1="1129.63" y1="534.746" x2="855.942" y2="680.773" gradientUnits="userSpaceOnUse">
<stop stop-color="white"/>
<stop offset="0.9637" stop-color="white" stop-opacity="0.01"/>
<stop offset="1" stop-color="white" stop-opacity="0"/>
</linearGradient>
<linearGradient id="paint41_linear_425_2361" x1="1119.14" y1="558.409" x2="847.276" y2="699.871" gradientUnits="userSpaceOnUse">
<stop stop-color="white"/>
<stop offset="0.9637" stop-color="white" stop-opacity="0.01"/>
<stop offset="1" stop-color="white" stop-opacity="0"/>
</linearGradient>
<linearGradient id="paint42_linear_425_2361" x1="1107.1" y1="582.922" x2="836.698" y2="720.092" gradientUnits="userSpaceOnUse">
<stop stop-color="white"/>
<stop offset="0.9637" stop-color="white" stop-opacity="0.01"/>
<stop offset="1" stop-color="white" stop-opacity="0"/>
</linearGradient>
<linearGradient id="paint43_linear_425_2361" x1="1093.38" y1="608.073" x2="824.215" y2="741.169" gradientUnits="userSpaceOnUse">
<stop stop-color="white"/>
<stop offset="0.9637" stop-color="white" stop-opacity="0.01"/>
<stop offset="1" stop-color="white" stop-opacity="0"/>
</linearGradient>
<linearGradient id="paint44_linear_425_2361" x1="1077.94" y1="634.179" x2="809.733" y2="763.398" gradientUnits="userSpaceOnUse">
<stop stop-color="white"/>
<stop offset="0.9637" stop-color="white" stop-opacity="0.01"/>
<stop offset="1" stop-color="white" stop-opacity="0"/>
</linearGradient>
<linearGradient id="paint45_linear_425_2361" x1="1060.68" y1="660.999" x2="793.264" y2="786.506" gradientUnits="userSpaceOnUse">
<stop stop-color="white"/>
<stop offset="1" stop-color="white" stop-opacity="0"/>
</linearGradient>
</defs>
</svg>
